<?xml version="1.0" standalone="no"?>
<!DOCTYPE svg PUBLIC "-//W3C//DTD SVG 1.1//EN" "http://www.w3.org/Graphics/SVG/1.1/DTD/svg11.dtd" >
<svg xmlns="http://www.w3.org/2000/svg">
<metadata></metadata>
<defs>
<font id="gilroyblack" horiz-adv-x="1259" >
<font-face units-per-em="2048" ascent="1638" descent="-410" />
<missing-glyph horiz-adv-x="464" />
<glyph unicode="&#xfb01;" horiz-adv-x="1171" d="M31 698v326h129q0 440 516 440q135 0 266 -30v-297q-134 18 -240 18t-154 -29t-48 -102h573v-1024h-340v698h-233v-698h-340v698h-129z" />
<glyph unicode="&#xfb02;" horiz-adv-x="1171" d="M31 698v326h129q0 440 516 440q186 0 397 -41v-1423h-340v1174q-19 2 -79 2t-107 -38t-47 -114h135v-326h-135v-698h-340v698h-129z" />
<glyph horiz-adv-x="0" />
<glyph unicode="&#xd;" horiz-adv-x="681" />
<glyph unicode=" "  horiz-adv-x="464" />
<glyph unicode="&#x09;" horiz-adv-x="464" />
<glyph unicode="&#xa0;" horiz-adv-x="464" />
<glyph unicode="!" horiz-adv-x="602" d="M88 183q0 89 62 151t151 63q89 0 151 -62q62 -61 62 -151t-62 -152t-151 -61q-88 -1 -150 61q-63 62 -63 151zM92 1024v410h418v-410l-68 -502h-282z" />
<glyph unicode="&#x22;" horiz-adv-x="905" d="M92 1434h316l-41 -531h-234zM498 1434h315l-41 -531h-233z" />
<glyph unicode="#" horiz-adv-x="1292" d="M41 399l39 246h209l24 143h-209l39 246h211l49 297h263l-50 -297h168l50 297h262l-49 -297h204l-39 -246h-206l-25 -143h209l-39 -246h-211l-49 -297h-262l49 297h-168l-49 -297h-262l49 297h-207zM551 645h168l24 143h-168z" />
<glyph unicode="$" horiz-adv-x="1138" d="M37 305l317 178q45 -133 166 -164v244q-182 61 -309 161t-127 295t123 311t313 132v176h144v-180q295 -35 417 -301l-311 -174q-31 94 -106 123v-242h2q10 -4 58 -22t106 -43t75 -37q16 -12 51 -36q36 -24 50 -43t38 -49t40 -90q18 -61 18 -124q0 -192 -119 -308 t-319 -139v-178h-144v176q-180 11 -306 99t-177 235zM440 1020q0 -51 80 -92v186q-80 -20 -80 -94zM664 322q82 23 82 85t-82 99v-184z" />
<glyph unicode="%" horiz-adv-x="1685" d="M72 1098q0 154 108 260q109 106 269 106t266 -106t106 -261t-107 -261t-266 -107q-159 0 -268 108q-108 107 -108 261zM285 225l942 1024l143 -82l-944 -1022zM342 1097q0 -46 30 -77t75 -31q46 0 76 32t30 77t-30 76q-30 30 -76 30q-45 0 -75 -30t-30 -77zM864 339 q0 155 108 261t268 106t267 -107t107 -261t-108 -260t-267 -107q-159 1 -267 107t-108 261zM1134 339q0 -46 30 -77t75 -31t75 32t30 77t-30 76q-30 30 -75 30t-75 -30t-30 -77z" />
<glyph unicode="&#x26;" horiz-adv-x="1392" d="M72 408q0 254 231 399q-66 111 -65 233q0 184 132 304t339 120q350 0 493 -321l-309 -180q-57 154 -172 153q-53 0 -83 -30t-30 -68t18 -71q18 -34 33 -53q16 -19 62 -71l242 -268q43 102 63 209l295 -170q-41 -152 -133 -293l174 -195l-281 -161l-120 131 q-166 -106 -386 -106t-362 121q-141 122 -141 317zM442 444q0 -74 46 -116t125 -41q78 0 132 24l-241 262q-62 -55 -62 -129z" />
<glyph unicode="'" horiz-adv-x="497" d="M92 1434h316l-41 -531h-234z" />
<glyph unicode="(" horiz-adv-x="669" d="M92 717q0 471 225 921h342q-225 -452 -225 -922t225 -921h-342q-225 451 -225 922z" />
<glyph unicode=")" horiz-adv-x="669" d="M10 -205q225 451 226 922q0 471 -226 921h342q225 -452 225 -922t-225 -921h-342z" />
<glyph unicode="*" horiz-adv-x="829" d="M92 1042v197l187 -20l-115 143l164 102l86 -168l88 168l164 -102l-117 -143l186 20v-197l-186 21l117 -143l-164 -103l-88 168l-86 -168l-164 103l115 143z" />
<glyph unicode="+" horiz-adv-x="1146" d="M84 555v324h328v327h323v-327h328v-324h-328v-328h-323v328h-328z" />
<glyph unicode="," horiz-adv-x="618" d="M88 -287l72 643h375l-173 -643h-274z" />
<glyph unicode="-" horiz-adv-x="1024" d="M113 455v323h798v-323h-798z" />
<glyph unicode="." horiz-adv-x="591" d="M82 184q0 88 63 150t151 63q88 0 151 -62q63 -63 63 -151t-62 -150t-152 -63q-90 1 -152 63t-62 150z" />
<glyph unicode="/" horiz-adv-x="1064" d="M51 -205l819 1843h144l-819 -1843h-144z" />
<glyph unicode="0" horiz-adv-x="1290" d="M51 717q0 340 157 544q158 203 438 203t436 -204t157 -543q-1 -340 -157 -544t-437 -204t-437 204t-157 544zM418 717q0 -391 227 -391t227 391t-227 391t-227 -391z" />
<glyph unicode="1" horiz-adv-x="847" d="M10 1294l389 140h316v-1434h-367v1049l-250 -64z" />
<glyph unicode="2" horiz-adv-x="1103" d="M20 1135q70 161 205 245t299 84q206 0 352 -122t146 -332q0 -124 -58 -230t-171 -223l-195 -203h449v-354h-1004v266l475 502q72 78 105 126t33 98t-34 83t-94 33q-127 0 -192 -150z" />
<glyph unicode="3" horiz-adv-x="1122" d="M27 293l319 182q45 -150 197 -149q78 0 120 36t42 98t-42 98t-120 36h-78l-141 209l229 280h-481v351h932v-289l-240 -295q137 -44 221 -148t84 -251q0 -231 -151 -357q-152 -125 -375 -125q-178 0 -317 82q-138 82 -199 242z" />
<glyph unicode="4" horiz-adv-x="1183" d="M31 219v334l428 881h405l-432 -881h227v258h365v-258h143v-334h-143v-219h-365v219h-628z" />
<glyph unicode="5" horiz-adv-x="1126" d="M27 293l319 182q45 -150 211 -149q78 0 120 36t42 98t-42 97t-114 35h-459l60 842h844v-351h-506l-10 -153h102q211 0 351 -123t140 -352t-151 -358q-152 -128 -358 -128q-422 0 -549 324z" />
<glyph unicode="6" horiz-adv-x="1146" d="M31 475q0 168 90 297l424 662h416l-304 -457q209 -27 334 -163t125 -349t-150 -354t-393 -141t-393 140q-150 142 -149 365zM397 475q0 -82 49 -126t126 -44t127 45q51 45 51 126t-50 126t-127 45q-78 0 -127 -45t-49 -127z" />
<glyph unicode="7" horiz-adv-x="1003" d="M2 1079v355h971v-304l-449 -1130h-395l426 1079h-553z" />
<glyph unicode="8" horiz-adv-x="1165" d="M47 403q0 227 191 347q-142 104 -142 296t137 304t349 112t350 -114q137 -114 137 -304t-141 -294q190 -120 190 -334t-139 -330t-396 -115q-257 0 -397 116q-139 116 -139 316zM414 456q0 -68 46 -109q46 -40 123 -40t124 40t47 109q0 68 -47 108t-124 40t-123 -40 t-46 -108zM442 1007q0 -56 38 -89t102 -33t102 34q39 34 39 89q0 54 -39 88q-38 34 -102 34t-102 -34t-38 -89z" />
<glyph unicode="9" horiz-adv-x="1146" d="M31 968q0 212 149 355q150 141 394 141t393 -141q149 -142 149 -365q0 -168 -90 -296l-424 -662h-416l303 457q-209 27 -333 163t-125 348zM397 957q0 -81 49 -126t127 -45t127 45t50 127q0 82 -50 126t-126 44q-77 0 -127 -45t-50 -126z" />
<glyph unicode=":" horiz-adv-x="591" d="M82 184q0 88 63 150t151 63q88 0 151 -62q63 -63 63 -151t-62 -150t-152 -63q-90 1 -152 63t-62 150zM82 842q0 88 63 150t151 62t151 -62t63 -150t-62 -150t-152 -63q-89 0 -152 62q-62 63 -62 151z" />
<glyph unicode=";" horiz-adv-x="622" d="M88 -287l72 643h375l-173 -643h-274zM113 842q0 88 63 150q64 62 152 62t150 -62t62 -150t-62 -150t-151 -63q-89 0 -152 62q-62 63 -62 151z" />
<glyph unicode="&#x3c;" horiz-adv-x="1067" d="M74 565v303l921 400v-353l-555 -198l555 -199v-352z" />
<glyph unicode="=" horiz-adv-x="1046" d="M72 330v325h901v-325h-901zM72 778v326h901v-326h-901z" />
<glyph unicode="&#x3e;" horiz-adv-x="1067" d="M72 166v352l555 199l-555 198v353l921 -400v-303z" />
<glyph unicode="?" horiz-adv-x="1120" d="M43 1126q68 166 208 252q139 86 325 86t323 -110t137 -297q0 -86 -34 -159t-80 -122t-94 -91t-82 -83t-33 -80h-348q0 84 48 159t105 121q154 124 154 210q0 98 -123 98t-195 -162zM326 183q0 89 62 151t150 63q88 0 151 -62q63 -61 63 -151t-62 -152t-151 -61 q-89 -1 -151 61t-62 151z" />
<glyph unicode="@" horiz-adv-x="1574" d="M58 506q0 315 213 531q215 216 532 216q217 0 385 -105t250 -263q82 -159 82 -355t-89 -316t-251 -120q-109 0 -183 45t-106 123q-76 -88 -203 -88t-210 95t-83 243t83 242q82 96 202 96t192 -68v43h279v-483q0 -129 102 -129q78 0 126 83t48 257q0 260 -180 438 t-450 178q-269 0 -459 -189t-190 -472t195 -468q196 -185 497 -185q176 0 309 45v-88q-133 -41 -309 -41q-336 0 -559 210t-223 525zM676 512q0 -47 26 -77q27 -29 71 -29t71 30t26 76q0 47 -25 77q-26 29 -71 29t-72 -30q-26 -30 -26 -76z" />
<glyph unicode="A" horiz-adv-x="1374" d="M-10 0l473 1434h446l473 -1434h-395l-61 207h-477l-62 -207h-397zM543 522h288l-145 488z" />
<glyph unicode="B" horiz-adv-x="1232" d="M113 0v1434h565q215 0 344 -110t129 -294t-133 -289q180 -107 180 -309t-131 -317t-350 -115h-604zM479 328h228q55 0 90 34t35 88t-35 87q-34 32 -87 32h-3h-228v-241zM479 881h189h3q47 0 80 29q33 30 33 82t-32 83q-33 31 -84 31h-189v-225z" />
<glyph unicode="C" horiz-adv-x="1472" d="M57 716.5q0 319.5 212 533.5t536 214q195 0 360.5 -92t259.5 -248l-317 -182q-41 76 -122 120t-181 44q-172 0 -277.5 -107.5t-105.5 -281.5t105.5 -281.5t277.5 -107.5q100 0 181 44t122 122l317 -185q-94 -158 -258.5 -249t-361.5 -91q-324 0 -536 214t-212 533.5z" />
<glyph unicode="D" horiz-adv-x="1449" d="M113 0v1434h583q297 0 497 -206t200 -511t-200 -511t-497 -206h-583zM489 354h207q150 0 244 99.5t94 263.5t-94 263t-244 99h-207v-725z" />
<glyph unicode="E" horiz-adv-x="1095" d="M113 0v1434h911v-342h-545v-199h494v-338h-494v-211h555v-344h-921z" />
<glyph unicode="F" horiz-adv-x="1060" d="M113 0v1434h880v-355h-514v-233h504v-354h-504v-492h-366z" />
<glyph unicode="G" horiz-adv-x="1593" d="M57 714.5q0 315.5 215 532.5t533 217q201 0 367.5 -90t261.5 -239l-312 -179q-43 68 -126 109t-187 41q-170 0 -278.5 -110.5t-108.5 -279.5t107.5 -284t301.5 -115q250 0 330 189h-348v315h723v-145q0 -315 -197.5 -511t-523.5 -196t-542 215t-216 530.5z" />
<glyph unicode="H" horiz-adv-x="1361" d="M113 0v1434h366v-531h404v531h364v-1434h-364v551h-404v-551h-366z" />
<glyph unicode="I" horiz-adv-x="591" d="M113 0v1434h366v-1434h-366z" />
<glyph unicode="J" horiz-adv-x="1169" d="M51 256l314 182q31 -59 71 -86q39 -26 106 -26h5q158 0 158 145v963h366v-969q0 -231 -142 -363t-382 -133q-352 0 -496 287z" />
<glyph unicode="K" horiz-adv-x="1292" d="M113 0v1434h366v-603l391 603h410l-455 -697l475 -737h-409l-412 641v-641h-366z" />
<glyph unicode="L" horiz-adv-x="993" d="M113 0v1434h366v-1080h494v-354h-860z" />
<glyph unicode="M" horiz-adv-x="1689" d="M113 0v1434h366l365 -613l366 613h365v-1434h-365v772l-348 -575h-37l-346 573v-770h-366z" />
<glyph unicode="N" horiz-adv-x="1382" d="M113 0v1434h284l506 -721v721h365v-1434h-283l-506 721v-721h-366z" />
<glyph unicode="O" horiz-adv-x="1617" d="M57 716.5q0 315.5 218.5 531.5t533.5 216t533.5 -216t218.5 -531.5t-218.5 -531.5t-533.5 -216t-533.5 216t-218.5 531.5zM422 717q0 -170 110.5 -279.5t276.5 -109.5t276.5 109.5t110.5 279.5t-110.5 279.5t-276.5 109.5t-276.5 -109.5t-110.5 -279.5z" />
<glyph unicode="P" horiz-adv-x="1212" d="M113 0v1434h557q217 0 364 -142q148 -142 148 -360t-148 -360t-364 -142h-191v-430h-366zM479 778h191q61 0 103 43t42 111t-42 110q-41 41 -100 41h-3h-191v-305z" />
<glyph unicode="Q" horiz-adv-x="1628" d="M57 716q0 316 218 532q217 216 533 216t534 -216t219 -531q0 -260 -154 -459l129 -139l-256 -228l-141 152q-154 -74 -330 -74q-315 0 -534 216q-218 215 -218 531zM422 716q0 -170 110 -279q111 -109 277 -109q23 0 59 4l-192 207l258 225l219 -234q43 86 43 187 q0 169 -111 279t-277 110t-276 -110t-110 -280z" />
<glyph unicode="R" horiz-adv-x="1269" d="M113 0v1434h573q219 0 367.5 -140.5t148.5 -355.5q0 -129 -65.5 -236.5t-178.5 -171.5l295 -530h-393l-250 463h-131v-463h-366zM479 774h203h6q64 0 105 43q43 45 43 117t-43 117t-111 45h-203v-322z" />
<glyph unicode="S" horiz-adv-x="1198" d="M37 326l313 182q80 -190 283 -191q168 0 168 97q0 63 -96 102q-41 16 -209.5 64t-283 152t-114.5 295.5t142.5 314t339 122.5t336 -84t212.5 -243l-307 -181q-68 160 -223 160q-66 0 -99.5 -26.5t-33.5 -70.5t50 -77t175 -70t188.5 -63.5t139.5 -76.5q149 -98 149 -311.5 t-149 -332.5t-385.5 -119t-386.5 96.5t-209 260.5z" />
<glyph unicode="T" horiz-adv-x="1116" d="M20 1079v355h1076v-355h-355v-1079h-366v1079h-355z" />
<glyph unicode="U" horiz-adv-x="1331" d="M98 471v963h367v-928q0 -180 200.5 -180t200.5 180v928h367v-963q0 -227 -159 -364.5t-408.5 -137.5t-408.5 137.5t-159 364.5z" />
<glyph unicode="V" horiz-adv-x="1361" d="M0 1434h401l279 -988l281 988h401l-463 -1434h-436z" />
<glyph unicode="W" horiz-adv-x="2056" d="M10 1434h396l221 -904l256 904h288l256 -904l224 904h393l-399 -1434h-388l-229 809l-229 -809h-387z" />
<glyph unicode="X" horiz-adv-x="1294" d="M10 0l432 731l-415 703h411l209 -355l209 355h412l-416 -705l430 -729h-410l-225 381l-225 -381h-412z" />
<glyph unicode="Y" horiz-adv-x="1333" d="M0 1434h412l254 -531l256 531h411l-483 -883v-551h-367v547z" />
<glyph unicode="Z" horiz-adv-x="1110" d="M68 0v283l505 796h-495v355h971v-283l-506 -797h522v-354h-997z" />
<glyph unicode="[" horiz-adv-x="673" d="M92 -205v1843h541v-325h-199v-1192h199v-326h-541z" />
<glyph unicode="\" horiz-adv-x="1064" d="M51 1638h144l819 -1843h-144z" />
<glyph unicode="]" horiz-adv-x="673" d="M41 121h199v1192h-199v325h541v-1843h-541v326z" />
<glyph unicode="^" horiz-adv-x="1187" d="M63 709l410 725h242l409 -725h-364l-166 323l-166 -323h-365z" />
<glyph unicode="_" horiz-adv-x="1054" d="M51 -57h953v-324h-953v324z" />
<glyph unicode="`" horiz-adv-x="643" d="M41 1434h397l164 -297h-323z" />
<glyph unicode="a" d="M49 512q0 231 138.5 386t333.5 155t300 -123v94h340v-1024h-340v94q-104 -123 -300 -123t-334 155t-138 386zM391 512q0 -100 59.5 -161.5t155.5 -61.5t155.5 61.5t59.5 161.5t-59.5 161.5t-155.5 61.5t-155.5 -61.5t-59.5 -161.5z" />
<glyph unicode="b" d="M98 0v1434h340v-504q104 123 300 123t334 -155t138 -386t-138 -386t-334 -155t-300 123v-94h-340zM438 512q0 -100 60 -162q59 -61 152 -61h3q96 0 156 61q59 62 59 162t-59 162q-58 61 -152 61h-3q-96 0 -156 -61q-60 -62 -60 -162z" />
<glyph unicode="c" horiz-adv-x="1081" d="M49 512q0 229 155.5 385t389.5 156q152 0 275.5 -72t191.5 -193l-291 -167q-55 100 -178 100q-86 0 -143.5 -58.5t-57.5 -150.5t57.5 -150.5t143.5 -58.5q127 0 178 103l291 -168q-68 -123 -191.5 -195t-275.5 -72q-233 0 -389 156t-156 385z" />
<glyph unicode="d" d="M49 512q0 231 138 386q137 155 333 155t301 -123v504h340v-1434h-340v94q-104 -123 -300 -123t-334 155t-138 386zM392 512q0 -100 58 -162q59 -61 153 -61h3q96 0 156 61q59 62 59 162t-59 162q-59 61 -153 61h-3q-96 0 -155 -61q-59 -62 -59 -162z" />
<glyph unicode="e" horiz-adv-x="1169" d="M49 508.5q0 232.5 153.5 388.5t387 156t383 -154t149.5 -385q0 -68 -14 -127h-707q51 -125 230 -125q111 0 186 72l246 -172q-152 -190 -426 -190q-1 0 -2 -1q-273 1 -429 153q-157 152 -157 384.5zM397 623h394q-41 143 -196 143t-198 -143z" />
<glyph unicode="f" horiz-adv-x="675" d="M31 698v326h129q0 221 130 338q115 104 329 104q28 0 57 -2v-315q-14 1 -27 1q-149 0 -149 -126h176v-326h-176v-698h-340v698h-129z" />
<glyph unicode="g" horiz-adv-x="1265" d="M57 532.5q0 217.5 138.5 369t335 151.5t300.5 -127v98h336v-983q0 -123 -46 -218q-45 -95 -123 -151q-153 -112 -346 -112q-389 0 -527 250l283 163q73 -116 215 -116h2q92 0 149 47t57 137v98q-104 -127 -300.5 -127t-335 151.5t-138.5 369zM397 532.5 q0 -92.5 60.5 -153t157 -60.5t156.5 60.5t60 153t-60 152.5t-156.5 60t-157 -60t-60.5 -152.5z" />
<glyph unicode="h" horiz-adv-x="1185" d="M98 0v1434h340v-512q92 131 272 131t284 -114q105 -114 106 -327v-612h-340v569q0 80 -42 121t-117 41t-119 -48t-44 -138v-545h-340z" />
<glyph unicode="i" horiz-adv-x="536" d="M72 1304q0 80 58 138q58 57 138 57t138 -57t59 -137q0 -80 -58 -139q-59 -58 -139 -58t-138 58t-58 138zM98 0v1024h340v-1024h-340z" />
<glyph unicode="j" horiz-adv-x="567" d="M-20 -125q11 -1 21 -1q62 0 93 26q36 30 35 100v1024h340v-1024q0 -242 -119 -348q-105 -94 -313 -94q-28 0 -57 2v315zM102 1304q0 80 58 138q58 57 139 57q80 0 138 -57q59 -57 59 -137q0 -81 -58 -139t-139 -58q-80 0 -138 58q-59 58 -59 138z" />
<glyph unicode="k" horiz-adv-x="1110" d="M98 0v1434h340v-838l264 428h394l-344 -512l358 -512h-381l-291 436v-436h-340z" />
<glyph unicode="l" horiz-adv-x="536" d="M98 0v1495h340v-1495h-340z" />
<glyph unicode="m" horiz-adv-x="1744" d="M98 0v1024h340v-96q94 125 274 125t265 -131q107 131 291 131t287 -114t104 -312v-627h-342v588q0 143 -127 143q-70 0 -106 -46t-35 -126v-559h-340v588q0 143 -129 143q-70 0 -106 -46t-36 -126v-559h-340z" />
<glyph unicode="n" horiz-adv-x="1185" d="M98 0v1024h340v-102q92 131 271.5 131t285 -114t105.5 -327v-612h-340v569q0 80 -42 121t-117 41t-119 -48t-44 -138v-545h-340z" />
<glyph unicode="o" horiz-adv-x="1193" d="M49 512q0 227 160 384t388 157t387 -157t159 -384t-159 -384t-387 -157t-388 157t-160 384zM391 512q0 -94 58.5 -153.5t147.5 -59.5t147.5 59.5t58.5 153.5t-58.5 153.5t-147.5 59.5t-147.5 -59.5t-58.5 -153.5z" />
<glyph unicode="p" d="M98 -410v1434h340v-94q104 123 300 123t334 -155t138 -386t-138 -386t-334 -155t-300 123v-504h-340zM438 512q0 -100 60 -162q59 -61 152 -61h3q96 0 156 61q59 62 59 162t-59 162q-58 61 -152 61h-3q-96 0 -156 -61q-60 -62 -60 -162z" />
<glyph unicode="q" d="M49 512q0 231 138 386q137 155 333 155t301 -123v94h340v-1434h-340v504q-104 -123 -300 -123t-334 155t-138 386zM392 512q0 -100 58 -162q59 -61 153 -61h3q96 0 156 61q59 62 59 162t-59 162q-59 61 -153 61h-3q-96 0 -155 -61q-59 -62 -59 -162z" />
<glyph unicode="r" horiz-adv-x="776" d="M98 0v1024h340v-190q29 100 115 155t192 55v-376q-26 4 -52 4q-87 0 -160 -48q-95 -62 -95 -200v-424h-340z" />
<glyph unicode="s" horiz-adv-x="972" d="M31 215l297 150q39 -113 159 -113q92 0 93 55q0 29 -51.5 47.5t-125 37t-147.5 49t-125 99t-51 169.5q0 164 121 254t291 90q303 0 421 -238l-286 -129q-45 88 -124 88t-79 -49q0 -29 52 -47.5t127 -34.5t149.5 -46t127 -101.5t52.5 -180.5q0 -176 -131 -260t-312 -84 q-344 0 -458 244z" />
<glyph unicode="t" horiz-adv-x="806" d="M27 698v326h153v184l340 103v-287h213v-326h-213v-297q0 -68 49 -84q36 -12 106 -11q26 0 58 1v-307q-86 -10 -158 -10q-182 0 -271 66q-124 94 -124 337v305h-153z" />
<glyph unicode="u" horiz-adv-x="1185" d="M86 412v612h340v-569q0 -80 42 -121t117 -41t119 48t44 138v545h339v-1024h-339v102q-92 -131 -272 -131t-285 114t-105 327z" />
<glyph unicode="v" horiz-adv-x="1134" d="M0 1024h377l190 -588l191 588h377l-383 -1024h-369z" />
<glyph unicode="w" horiz-adv-x="1634" d="M25 1024h360l135 -557l154 557h287l153 -557l135 557h361l-314 -1024h-331l-148 520l-147 -520h-332z" />
<glyph unicode="x" horiz-adv-x="1124" d="M0 0l371 522l-357 502h383l164 -231l164 231h385l-356 -502l370 -522h-385l-178 252l-178 -252h-383z" />
<glyph unicode="y" horiz-adv-x="1124" d="M0 1024h381l207 -594l160 594h376l-350 -1008q-82 -231 -232 -334q-136 -93 -345 -93q-20 0 -41 1v320q109 0 164 26.5t90 96.5z" />
<glyph unicode="z" horiz-adv-x="991" d="M82 0v233l362 476h-342v315h797v-233l-362 -476h383v-315h-838z" />
<glyph unicode="{" horiz-adv-x="741" d="M84 557v326q74 -7 111 15t36 87v275q0 205 117 309t352 90v-316q-129 12 -129 -83v-275q0 -190 -137 -264q137 -76 137 -266v-275q0 -96 129 -84v-315q-236 -14 -352 90t-117 309v275q-1 67 -37 89t-110 13z" />
<glyph unicode="|" horiz-adv-x="567" d="M113 -410v1885h342v-1885h-342z" />
<glyph unicode="}" horiz-adv-x="741" d="M41 96q129 -12 129 84v275q0 190 137 266q-137 74 -137 264v275q0 96 -129 83v316q237 14 353 -90t116 -309v-275q0 -67 37 -89t110 -13v-326q-75 7 -111 -15t-36 -87v-275q0 -205 -116 -309t-353 -90v315z" />
<glyph unicode="~" horiz-adv-x="1241" d="M72 606q53 227 204 305q152 78 332 -8q106 -47 156 -57t80 10t55 88l268 -125q-53 -227 -203 -305t-331 8q-147 68 -203 62t-88 -103z" />
<glyph unicode="&#xa1;" horiz-adv-x="602" d="M88 840q0 90 62 152t151 61q89 1 151 -61t62 -151t-62 -151t-150 -63q-88 0 -151 62q-63 61 -63 151zM92 0l68 502h282l68 -502v-410h-418v410z" />
<glyph unicode="&#xa2;" horiz-adv-x="1081" d="M49 717q0 229 156 385t389 155q57 0 100 -8l60 185h129l-72 -220q164 -68 250 -221l-291 -168q-18 37 -61 68l-125 -385h8q127 0 178 102l291 -168q-68 -122 -192 -194t-275 -72q-53 0 -115 10l-59 -186h-129l71 223q-143 63 -228 195t-85 299zM391 708q0 -102 78 -159 l121 377q-86 -2 -142 -60q-56 -56 -57 -158z" />
<glyph unicode="&#xa3;" horiz-adv-x="1177" d="M51 0v354h127v203h-106v287h106v155q0 223 140 344t331 121q348 0 486 -319l-318 -176q-47 145 -153 145q-55 0 -87 -36t-32 -99v-135h387v-287h-387v-203h622v-354h-1116z" />
<glyph unicode="&#xa4;" horiz-adv-x="1091" d="M51 309l144 144q-91 113 -91 265t91 263l-144 143l88 86l146 -145q115 82 262 82t262 -80l143 143l88 -86l-141 -141q90 -116 90 -267t-92 -265l143 -142l-88 -86l-143 144q-115 -80 -262 -80t-262 82l-146 -146zM432 717q0 -53 31 -84t83 -31t84 31t32 84t-32 84t-84 31 t-83 -32q-31 -30 -31 -83z" />
<glyph unicode="&#xa5;" horiz-adv-x="1292" d="M0 1434h412l254 -531l256 531h411l-366 -672h174v-193h-281l-10 -18v-66h291v-190h-291v-295h-367v295h-333v190h333v62l-12 22h-321v193h217z" />
<glyph unicode="&#xa6;" horiz-adv-x="567" d="M113 348h342v-758h-342v758zM113 717v758h342v-758h-342z" />
<glyph unicode="&#xa7;" horiz-adv-x="1116" d="M78 666q0 152 119 243q-53 84 -54 201q0 170 123 262t291 92q313 0 436 -266l-276 -139q-53 129 -150 129q-41 0 -63 -20t-23 -46q0 -50 52 -78q52 -29 125 -56t102 -40q137 -55 218 -135q81 -81 81 -227t-113 -246q63 -86 64 -211q0 -174 -128 -266t-319 -92 q-352 0 -467 256l293 159q53 -133 167 -133t114 76q0 40 -52 66t-124 53q-72 26 -103 39q-141 59 -227 143t-86 236zM414 672q0 -43 34 -70t80 -44q48 -18 94 -34t70 -24q31 24 31 62t-22 61t-66 42t-104 40q-60 22 -89 34q-28 -24 -28 -67z" />
<glyph unicode="&#xa8;" horiz-adv-x="796" d="M41 1260q0 68 48 116t115 47q66 0 114 -48q48 -47 48 -115t-47 -116q-48 -48 -115 -48t-115 48t-48 116zM440 1260q0 68 48 116t115 47q67 0 115 -48q48 -47 48 -115t-48 -116t-115 -48t-115 48t-48 116z" />
<glyph unicode="&#xa9;" horiz-adv-x="1595" d="M57 717q0 307 217 524q216 217 524 217t525 -217t217 -524t-217 -525t-524 -217q-307 -1 -525 217t-217 525zM148 717q0 -272 190 -465q191 -193 460 -193t459 193t191 465q0 272 -190 465q-190 192 -460 192q-269 0 -460 -192q-190 -193 -190 -465zM397 717 q0 163 120 283t288 120q104 0 196 -53t148 -145l-242 -142q-39 62 -102 62t-97 -38t-34 -87t34 -87t98 -38t101 61l242 -141q-53 -92 -147 -146t-197 -53q-168 0 -288 120t-120 284z" />
<glyph unicode="&#xab;" horiz-adv-x="1165" d="M113 633l231 399h289l-230 -399l230 -400h-289zM532 633l230 399h291l-232 -399l232 -400h-291z" />
<glyph unicode="&#xac;" horiz-adv-x="1165" d="M72 555v324h1022v-570h-346v246h-676z" />
<glyph unicode="&#xad;" horiz-adv-x="1024" d="M113 455v323h798v-323h-798z" />
<glyph unicode="&#xae;" horiz-adv-x="1595" d="M57 717q0 307 217 524q218 217 525 217t524 -217t217 -524t-217 -524t-524 -217t-525 216q-218 218 -217 525zM148 717q0 -272 190 -465q191 -193 460 -193t459 193t191 465q0 272 -190 465q-190 192 -460 192q-269 0 -460 -192q-190 -193 -190 -465zM492 338v758h360 q119 0 205 -72t86 -201q0 -130 -105 -219l152 -266h-289l-98 199h-43v-199h-268zM760 752h49q66 0 65 55q1 53 -65 53h-49v-108z" />
<glyph unicode="&#xaf;" horiz-adv-x="714" d="M41 1135v266h633v-266h-633z" />
<glyph unicode="&#xb0;" horiz-adv-x="849" d="M62 1302q0 148 104 252t260 104t259 -104t103 -254t-102 -253t-259 -103t-261 104t-104 254zM334 1300q0 -40 26 -66t66 -26q41 0 66 26q24 26 24 66t-26 68q-26 27 -66 27t-65 -27t-25 -68z" />
<glyph unicode="&#xb1;" horiz-adv-x="1146" d="M84 43v326h979v-326h-979zM84 760v323h328v279h323v-279h328v-323h-328v-279h-323v279h-328z" />
<glyph unicode="&#xb4;" horiz-adv-x="643" d="M41 1137l164 297h397l-237 -297h-324z" />
<glyph unicode="&#xb5;" horiz-adv-x="1245" d="M98 -410v1434h340v-569q0 -82 42 -123t117 -41t119 48t44 140v545h340v-657q0 -62 61 -62h53v-305h-147q-156 0 -240 96q-92 -127 -288 -127q-55 0 -101 15v-394h-340z" />
<glyph unicode="&#xb6;" horiz-adv-x="1488" d="M41 974q0 192 134 326t327 134h915v-328h-137v-1516h-324v1516h-131v-1516h-323v924q-190 0 -326 134q-135 134 -135 326z" />
<glyph unicode="&#xb7;" horiz-adv-x="591" d="M82 716q0 88 63 151t151 63t151 -62t63 -151t-62 -151t-152 -62q-89 0 -152 62q-62 62 -62 150z" />
<glyph unicode="&#xb8;" horiz-adv-x="561" d="M41 -229q195 -14 195 28q0 31 -109 41v160h274v-94q45 -14 82 -53t37 -105q0 -229 -479 -201v224z" />
<glyph unicode="&#xbb;" horiz-adv-x="1165" d="M113 233l231 400l-231 399h290l230 -399l-230 -400h-290zM532 233l230 400l-230 399h289l232 -399l-232 -400h-289z" />
<glyph unicode="&#xbc;" horiz-adv-x="1675" d="M0 1339l260 95h232v-820h-269v545l-162 -43zM219 0l828 1434h233l-827 -1434h-234zM950 115v235l238 469h282l-227 -469h84v129h250v-129h72v-235h-72v-115h-250v115h-377z" />
<glyph unicode="&#xbd;" horiz-adv-x="1662" d="M0 1339l260 95h232v-820h-269v545l-162 -43zM219 0l828 1434h233l-827 -1434h-234zM965 643q96 205 323 205q129 0 219 -74t90 -196t-143 -256l-86 -82h238v-240h-627v182l293 285q59 59 59 98q0 45 -54 45t-93 -90z" />
<glyph unicode="&#xbe;" horiz-adv-x="1796" d="M6 778l221 127q31 -88 104 -88t72 53q0 51 -65 52h-57l-95 139l115 135h-254v238h586v-179l-133 -155q168 -62 168 -230q0 -137 -89 -211t-241 -73q-246 0 -332 192zM340 0l827 1434h234l-828 -1434h-233zM1071 115v235l238 469h282l-227 -469h84v129h250v-129h71v-235 h-71v-115h-250v115h-377z" />
<glyph unicode="&#xbf;" horiz-adv-x="1120" d="M84 -33q0 86 34 159t81 122t94 91t81 83t34 80h348q0 -84 -48 -159t-106 -121q-154 -123 -153 -210q1 -98 123 -98t194 162l311 -178q-68 -166 -208 -252q-139 -86 -325 -86t-323 110t-137 297zM369 840q-1 90 61 152t152 61q90 1 151 -61t61 -151t-62 -151t-150 -63 q-88 0 -151 62q-62 61 -62 151z" />
<glyph unicode="&#xc0;" horiz-adv-x="1374" d="M-10 0l473 1434h446l473 -1434h-395l-61 207h-477l-62 -207h-397zM319 1843h398l164 -297h-324zM543 522h288l-145 488z" />
<glyph unicode="&#xc1;" horiz-adv-x="1374" d="M-10 0l473 1434h446l473 -1434h-395l-61 207h-477l-62 -207h-397zM483 1546l164 297h397l-237 -297h-324zM543 522h288l-145 488z" />
<glyph unicode="&#xc2;" horiz-adv-x="1374" d="M-10 0l473 1434h446l473 -1434h-395l-61 207h-477l-62 -207h-397zM289 1526l217 317h342l217 -317h-307l-80 114l-82 -114h-307zM543 522h288l-145 488z" />
<glyph unicode="&#xc3;" horiz-adv-x="1374" d="M-10 0l473 1434h446l473 -1434h-395l-61 207h-477l-62 -207h-397zM319 1532q1 282 177 328q93 25 213 -35q49 -33 74.5 -29t25.5 68h246q-1 -289 -177 -330q-97 -23 -214 39q-49 33 -74 27.5t-25 -68.5h-246zM543 522h288l-145 488z" />
<glyph unicode="&#xc4;" horiz-adv-x="1374" d="M-10 0l473 1434h446l473 -1434h-395l-61 207h-477l-62 -207h-397zM324 1669.5q0 67.5 48 115.5t114.5 48t114.5 -48t48 -115.5t-48 -116t-115 -48.5t-114.5 48.5t-47.5 116zM543 522h288l-145 488zM723 1669.5q0 67.5 48 115.5t115 48t115 -48t48 -115.5t-48 -116 t-115 -48.5t-115 48.5t-48 116z" />
<glyph unicode="&#xc5;" horiz-adv-x="1374" d="M-10 0l465 1411q-55 72 -55.5 177.5t80.5 182t208 76.5t207 -76.5t80 -183t-57 -180.5l464 -1407h-395l-61 207h-477l-62 -207h-397zM543 522h288l-145 488zM618 1577q0 -29 18.5 -47.5t49.5 -18.5q70 0 70 65.5t-70 65.5q-31 0 -49.5 -18t-18.5 -47z" />
<glyph unicode="&#xc6;" horiz-adv-x="1812" d="M-10 0l819 1434h932v-342h-473v-199h422v-338h-422v-211h483v-344h-840v207h-397l-117 -207h-407zM690 522h221v393z" />
<glyph unicode="&#xc7;" horiz-adv-x="1472" d="M57 734q0 302 212 516t536 214q195 0 360.5 -92t259.5 -248l-317 -182q-41 76 -122 120t-181 44q-172 0 -277.5 -107.5t-105.5 -281.5t105.5 -281.5t277.5 -107.5q100 0 181 44t122 122l317 -185q-76 -127 -199.5 -212t-273.5 -113v-78q45 -14 82 -53t37 -105 q0 -229 -479 -201v224q195 -14 194 28q0 31 -108 41v140q-274 41 -447.5 246.5t-173.5 507.5z" />
<glyph unicode="&#xc8;" horiz-adv-x="1095" d="M113 0v1434h911v-342h-545v-199h494v-338h-494v-211h555v-344h-921zM203 1843h397l164 -297h-324z" />
<glyph unicode="&#xc9;" horiz-adv-x="1095" d="M113 0v1434h911v-342h-545v-199h494v-338h-494v-211h555v-344h-921zM367 1546l163 297h398l-238 -297h-323z" />
<glyph unicode="&#xca;" horiz-adv-x="1095" d="M113 0v1434h911v-342h-545v-199h494v-338h-494v-211h555v-344h-921zM172 1526l217 317h342l217 -317h-307l-80 114l-82 -114h-307z" />
<glyph unicode="&#xcb;" horiz-adv-x="1095" d="M113 0v1434h911v-342h-545v-199h494v-338h-494v-211h555v-344h-921zM207 1669.5q0 67.5 48 115.5t115 48t114.5 -48t47.5 -115.5t-47.5 -116t-114.5 -48.5t-115 48.5t-48 116zM606 1669.5q0 67.5 48 115.5t115 48t115 -48t48 -115.5t-48 -116t-115 -48.5t-115 48.5 t-48 116z" />
<glyph unicode="&#xcc;" horiz-adv-x="591" d="M-70 1843h398l164 -297h-324zM113 0v1434h366v-1434h-366z" />
<glyph unicode="&#xcd;" horiz-adv-x="591" d="M94 1546l164 297h397l-237 -297h-324zM113 0v1434h366v-1434h-366z" />
<glyph unicode="&#xce;" horiz-adv-x="591" d="M-100 1526l217 317h342l217 -317h-307l-80 114l-82 -114h-307zM113 0v1434h366v-1434h-366z" />
<glyph unicode="&#xcf;" horiz-adv-x="591" d="M-66 1669.5q0 67.5 48.5 115.5t115 48t114.5 -48t48 -115.5t-48 -116t-115 -48.5t-115 48.5t-48 116zM113 0v1434h366v-1434h-366zM334 1669.5q0 67.5 48 115.5t115 48t114.5 -48t47.5 -115.5t-47.5 -116t-114.5 -48.5t-115 48.5t-48 116z" />
<glyph unicode="&#xd0;" horiz-adv-x="1511" d="M20 539v323h156v572h584q297 0 496.5 -206t199.5 -511t-199.5 -511t-496.5 -206h-584v539h-156zM553 354h207q150 0 244 99.5t94 263.5t-94.5 263t-243.5 99h-207v-217h266v-323h-266v-185z" />
<glyph unicode="&#xd1;" horiz-adv-x="1382" d="M113 0v1434h284l506 -721v721h365v-1434h-283l-506 721v-721h-366zM299 1532q0 282 176 328q94 25 213 -35q49 -33 74.5 -29t25.5 68h246q0 -289 -176 -330q-98 -23 -215 39q-49 33 -73.5 27.5t-24.5 -68.5h-246z" />
<glyph unicode="&#xd2;" horiz-adv-x="1617" d="M57 716.5q0 315.5 218.5 531.5t533.5 216t533.5 -216t218.5 -531.5t-218.5 -531.5t-533.5 -216t-533.5 216t-218.5 531.5zM422 717q0 -170 110.5 -279.5t276.5 -109.5t276.5 109.5t110.5 279.5t-110.5 279.5t-276.5 109.5t-276.5 -109.5t-110.5 -279.5zM442 1864h398 l164 -297h-324z" />
<glyph unicode="&#xd3;" horiz-adv-x="1617" d="M57 716.5q0 315.5 218.5 531.5t533.5 216t533.5 -216t218.5 -531.5t-218.5 -531.5t-533.5 -216t-533.5 216t-218.5 531.5zM422 717q0 -170 110.5 -279.5t276.5 -109.5t276.5 109.5t110.5 279.5t-110.5 279.5t-276.5 109.5t-276.5 -109.5t-110.5 -279.5zM606 1567l164 297 h397l-237 -297h-324z" />
<glyph unicode="&#xd4;" horiz-adv-x="1617" d="M57 716.5q0 315.5 218.5 531.5t533.5 216t533.5 -216t218.5 -531.5t-218.5 -531.5t-533.5 -216t-533.5 216t-218.5 531.5zM412 1546l217 318h342l217 -318h-307l-80 115l-82 -115h-307zM422 717q0 -170 110.5 -279.5t276.5 -109.5t276.5 109.5t110.5 279.5t-110.5 279.5 t-276.5 109.5t-276.5 -109.5t-110.5 -279.5z" />
<glyph unicode="&#xd5;" horiz-adv-x="1617" d="M57 716.5q0 315.5 218.5 531.5t533.5 216t533.5 -216t218.5 -531.5t-218.5 -531.5t-533.5 -216t-533.5 216t-218.5 531.5zM422 717q0 -170 110.5 -279.5t276.5 -109.5t276.5 109.5t110.5 279.5t-110.5 279.5t-276.5 109.5t-276.5 -109.5t-110.5 -279.5zM442 1552 q0 284 176 329q98 25 213 -36q49 -33 75 -28.5t26 67.5h246q0 -288 -176 -330q-93 -23 -216 39q-49 33 -73.5 28t-24.5 -69h-246z" />
<glyph unicode="&#xd6;" horiz-adv-x="1617" d="M57 716.5q0 315.5 218.5 531.5t533.5 216t533.5 -216t218.5 -531.5t-218.5 -531.5t-533.5 -216t-533.5 216t-218.5 531.5zM422 717q0 -170 110.5 -279.5t276.5 -109.5t276.5 109.5t110.5 279.5t-110.5 279.5t-276.5 109.5t-276.5 -109.5t-110.5 -279.5zM446 1689.5 q0 67.5 48.5 115.5t115 48t114.5 -48t48 -115.5t-48 -115.5t-115 -48t-115 48t-48 115.5zM846 1689.5q0 67.5 48 115.5t115 48t114.5 -48t47.5 -115.5t-47.5 -115.5t-114.5 -48t-115 48t-48 115.5z" />
<glyph unicode="&#xd7;" horiz-adv-x="1101" d="M84 479l238 238l-238 237l229 230l238 -238l237 238l230 -230l-238 -237l238 -238l-230 -229l-237 237l-238 -237z" />
<glyph unicode="&#xd8;" horiz-adv-x="1628" d="M67.5 721q0.5 311 218.5 527t533 216q223 0 406 -114l92 112l153 -88l-110 -135q211 -215 211 -526t-218 -527.5t-534 -216.5q-219 0 -405 115l-95 -113l-153 88l110 136q-209 215 -208.5 526zM432 733.5q0 -153.5 76 -256.5l485 592q-84 37 -174 37 q-166 0 -276.5 -109.5t-110.5 -263zM643 367q84 -39 176 -39q166 0 276.5 109.5t110.5 263t-78 257.5z" />
<glyph unicode="&#xd9;" horiz-adv-x="1331" d="M98 471v963h367v-928q0 -180 200.5 -180t200.5 180v928h367v-963q0 -227 -159 -364.5t-408.5 -137.5t-408.5 137.5t-159 364.5zM299 1843h397l164 -297h-323z" />
<glyph unicode="&#xda;" horiz-adv-x="1331" d="M98 471v963h367v-928q0 -180 200.5 -180t200.5 180v928h367v-963q0 -227 -159 -364.5t-408.5 -137.5t-408.5 137.5t-159 364.5zM463 1546l164 297h397l-238 -297h-323z" />
<glyph unicode="&#xdb;" horiz-adv-x="1331" d="M98 471v963h367v-928q0 -180 200.5 -180t200.5 180v928h367v-963q0 -227 -159 -364.5t-408.5 -137.5t-408.5 137.5t-159 364.5zM268 1526l217 317h342l217 -317h-307l-80 114l-82 -114h-307z" />
<glyph unicode="&#xdc;" horiz-adv-x="1331" d="M98 471v963h367v-928q0 -180 200.5 -180t200.5 180v928h367v-963q0 -227 -159 -364.5t-408.5 -137.5t-408.5 137.5t-159 364.5zM303 1669.5q0 67.5 48 115.5t115 48t115 -48t48 -115.5t-48 -116t-115 -48.5t-115 48.5t-48 116zM702 1669.5q0 67.5 48.5 115.5t115 48 t114.5 -48t48 -115.5t-48 -116t-115 -48.5t-115 48.5t-48 116z" />
<glyph unicode="&#xdd;" horiz-adv-x="1333" d="M0 1434h412l254 -531l256 531h411l-483 -883v-551h-367v547zM463 1546l164 297h397l-238 -297h-323z" />
<glyph unicode="&#xde;" horiz-adv-x="1212" d="M113 0v1434h366v-213h197q213 -1 359 -143q147 -142 147 -360t-146 -360t-360 -143h-197v-215h-366zM479 565h197q57 0 98 43t41 109q0 65 -41 109t-98 44h-197v-305z" />
<glyph unicode="&#xdf;" horiz-adv-x="1128" d="M98 0v1018q0 207 128 327q128 119 337 119t327 -104t118 -248q0 -70 -25 -125t-49 -96t-25 -81q0 -40 49 -117q50 -77 100 -179t50 -211q0 -172 -126 -261t-421 -52v303q205 -27 205 92q0 61 -100 209t-100 200t45 130q46 78 46 128t-26 81q-27 31 -78 31t-83 -37 q-32 -36 -32 -99v-1028h-340z" />
<glyph unicode="&#xe0;" d="M49 512q0 231 138.5 386t333.5 155t300 -123v94h340v-1024h-340v94q-104 -123 -300 -123t-334 155t-138 386zM262 1434h397l164 -297h-323zM391 512q0 -100 59.5 -161.5t155.5 -61.5t155.5 61.5t59.5 161.5t-59.5 161.5t-155.5 61.5t-155.5 -61.5t-59.5 -161.5z" />
<glyph unicode="&#xe1;" d="M49 512q0 231 138.5 386t333.5 155t300 -123v94h340v-1024h-340v94q-104 -123 -300 -123t-334 155t-138 386zM391 512q0 -100 59.5 -161.5t155.5 -61.5t155.5 61.5t59.5 161.5t-59.5 161.5t-155.5 61.5t-155.5 -61.5t-59.5 -161.5zM426 1137l164 297h397l-237 -297h-324z " />
<glyph unicode="&#xe2;" d="M49 512q0 231 138.5 386t333.5 155t300 -123v94h340v-1024h-340v94q-104 -123 -300 -123t-334 155t-138 386zM231 1116l218 318h342l217 -318h-308l-79 115l-82 -115h-308zM391 512q0 -100 59.5 -161.5t155.5 -61.5t155.5 61.5t59.5 161.5t-59.5 161.5t-155.5 61.5 t-155.5 -61.5t-59.5 -161.5z" />
<glyph unicode="&#xe3;" d="M49 512q0 231 138.5 386t333.5 155t300 -123v94h340v-1024h-340v94q-104 -123 -300 -123t-334 155t-138 386zM262 1122q0 284 176 329q98 25 213 -36q49 -33 75 -28.5t26 67.5h245q0 -286 -176 -330q-97 -24 -215 39q-49 33 -73.5 28t-24.5 -69h-246zM391 512 q0 -100 59.5 -161.5t155.5 -61.5t155.5 61.5t59.5 161.5t-59.5 161.5t-155.5 61.5t-155.5 -61.5t-59.5 -161.5z" />
<glyph unicode="&#xe4;" d="M49 512q0 231 138.5 386t333.5 155t300 -123v94h340v-1024h-340v94q-104 -123 -300 -123t-334 155t-138 386zM266 1259.5q0 67.5 48 115.5t115 48t115 -48t48 -115.5t-48 -115.5t-115 -48t-115 48t-48 115.5zM391 512q0 -100 59.5 -161.5t155.5 -61.5t155.5 61.5 t59.5 161.5t-59.5 161.5t-155.5 61.5t-155.5 -61.5t-59.5 -161.5zM666 1259.5q0 67.5 48 115.5t114.5 48t114.5 -48t48 -115.5t-48 -115.5t-115 -48t-114.5 48t-47.5 115.5z" />
<glyph unicode="&#xe5;" d="M49 512q0 231 138.5 386t333.5 155t300 -123v94h340v-1024h-340v94q-104 -123 -300 -123t-334 155t-138 386zM342 1362q0 117 81 193.5t208 76.5t207 -76.5t80 -194.5t-80 -193.5t-207 -75.5t-208 76.5t-81 193.5zM391 512q0 -100 59.5 -161.5t155.5 -61.5t155.5 61.5 t59.5 161.5t-59.5 161.5t-155.5 61.5t-155.5 -61.5t-59.5 -161.5zM561 1362q0 -29 18.5 -47.5t49.5 -18.5q70 0 70 65.5t-70 65.5q-31 0 -49.5 -18t-18.5 -47z" />
<glyph unicode="&#xe6;" horiz-adv-x="1941" d="M49 512q0 229 142 385t335 156t295 -113v84h309v-94q117 123 312 123q196 0 324 -153t128 -386q0 -68 -14 -127h-704q57 -135 231 -135q121 0 192 78l242 -164q-150 -195 -393 -195q-195 0 -318 129v-100h-309v84q-103 -113 -295 -113t-335 156q-142 156 -142 385z M392 512q0 -98 58 -158q60 -60 156 -61q96 0 156 60q59 61 59 159t-59 158q-60 60 -156 61q-96 0 -155 -60q-59 -61 -59 -159zM1169 625h396q-41 141 -195 141t-201 -141z" />
<glyph unicode="&#xe7;" horiz-adv-x="1081" d="M49 529q0 212 155.5 368t389.5 156q152 0 275.5 -72t191.5 -193l-291 -167q-55 100 -178 100q-86 0 -143.5 -58.5t-57.5 -150.5t57.5 -150.5t143.5 -58.5q127 0 178 103l291 -168q-102 -188 -318 -246v-86q45 -14 82 -53t37 -105q0 -229 -479 -201v224q195 -14 195 28 q0 31 -109 41v144q-186 41 -303 187t-117 358z" />
<glyph unicode="&#xe8;" horiz-adv-x="1169" d="M49 508.5q0 232.5 153.5 388.5t387 156t383 -154t149.5 -385q0 -68 -14 -127h-707q51 -125 230 -125q111 0 186 72l246 -172q-152 -190 -426 -190.5t-431 152t-157 385zM227 1448h398l163 -297h-323zM397 623h394q-41 143 -196 143t-198 -143z" />
<glyph unicode="&#xe9;" horiz-adv-x="1169" d="M49 508.5q0 232.5 153.5 388.5t387 156t383 -154t149.5 -385q0 -68 -14 -127h-707q51 -125 230 -125q111 0 186 72l246 -172q-152 -190 -426 -190.5t-431 152t-157 385zM391 1151l164 297h397l-237 -297h-324zM397 623h394q-41 143 -196 143t-198 -143z" />
<glyph unicode="&#xea;" horiz-adv-x="1169" d="M49 508.5q0 232.5 153.5 388.5t387 156t383 -154t149.5 -385q0 -68 -14 -127h-707q51 -125 230 -125q111 0 186 72l246 -172q-152 -190 -426 -190.5t-431 152t-157 385zM197 1130l217 318h342l217 -318h-307l-80 115l-82 -115h-307zM397 623h394q-41 143 -196 143 t-198 -143z" />
<glyph unicode="&#xeb;" horiz-adv-x="1169" d="M49 508.5q0 232.5 153.5 388.5t387 156t383 -154t149.5 -385q0 -68 -14 -127h-707q51 -125 230 -125q111 0 186 72l246 -172q-152 -190 -426 -190.5t-431 152t-157 385zM231 1273.5q0 67.5 48.5 116t115 48.5t114.5 -48.5t48 -116t-48 -115.5t-115 -48t-115 48t-48 115.5 zM397 623h394q-41 143 -196 143t-198 -143zM631 1273.5q0 67.5 48 116t115 48.5t114.5 -48.5t47.5 -116t-47.5 -115.5t-114.5 -48t-115 48t-48 115.5z" />
<glyph unicode="&#xec;" horiz-adv-x="536" d="M-39 1434h385l82 -308h-324zM98 0v1024h340v-1024h-340z" />
<glyph unicode="&#xed;" horiz-adv-x="536" d="M98 0v1024h340v-1024h-340zM98 1126l82 308h387l-145 -308h-324z" />
<glyph unicode="&#xee;" horiz-adv-x="536" d="M-90 1116l188 318h340l189 -318h-297l-62 101l-61 -101h-297zM98 0v1024h340v-1024h-340z" />
<glyph unicode="&#xef;" horiz-adv-x="536" d="M-74 1269.5q0 65.5 47 111.5t110.5 46t111 -46t47.5 -111.5t-47.5 -111.5t-111 -46t-110.5 46t-47 111.5zM98 0v1024h340v-1024h-340zM295 1269.5q0 65.5 47 111.5t110.5 46t110.5 -46t47 -111.5t-47 -111.5t-110.5 -46t-110.5 46t-47 111.5z" />
<glyph unicode="&#xf0;" horiz-adv-x="1155" d="M49 471q0 178 122 312t302 153l-78 108l-260 -102v242l125 49l-143 201h391l59 -80l267 104v-244l-125 -49l303 -407q94 -129 94 -287q0 -225 -156 -362t-374 -137t-373 136q-154 136 -154 363zM391 464q-1 -85 51 -133t136 -48t135 48q51 49 51 123t-33 119 q-53 70 -145 70t-144 -47t-51 -132z" />
<glyph unicode="&#xf1;" horiz-adv-x="1185" d="M98 0v1024h340v-102q92 131 271.5 131t285 -114t105.5 -327v-612h-340v569q0 80 -42 121t-117 41t-119 -48t-44 -138v-545h-340zM244 1143q0 283 176 329q94 25 213 -36q49 -33 74.5 -29t25.5 68h246q0 -289 -176 -330q-98 -23 -215 39q-49 33 -74 27.5t-25 -68.5h-245z " />
<glyph unicode="&#xf2;" horiz-adv-x="1193" d="M49 512q0 227 160 384t388 157t387 -157t159 -384t-159 -384t-387 -157t-388 157t-160 384zM229 1454h398l164 -297h-324zM391 512q0 -94 58.5 -153.5t147.5 -59.5t147.5 59.5t58.5 153.5t-58.5 153.5t-147.5 59.5t-147.5 -59.5t-58.5 -153.5z" />
<glyph unicode="&#xf3;" horiz-adv-x="1193" d="M49 512q0 227 160 384t388 157t387 -157t159 -384t-159 -384t-387 -157t-388 157t-160 384zM391 512q0 -94 58.5 -153.5t147.5 -59.5t147.5 59.5t58.5 153.5t-58.5 153.5t-147.5 59.5t-147.5 -59.5t-58.5 -153.5zM393 1157l164 297h397l-237 -297h-324z" />
<glyph unicode="&#xf4;" horiz-adv-x="1193" d="M49 512q0 227 160 384t388 157t387 -157t159 -384t-159 -384t-387 -157t-388 157t-160 384zM199 1137l217 317h342l217 -317h-307l-80 114l-82 -114h-307zM391 512q0 -94 58.5 -153.5t147.5 -59.5t147.5 59.5t58.5 153.5t-58.5 153.5t-147.5 59.5t-147.5 -59.5 t-58.5 -153.5z" />
<glyph unicode="&#xf5;" horiz-adv-x="1193" d="M49 512q0 227 160 384t388 157t387 -157t159 -384t-159 -384t-387 -157t-388 157t-160 384zM229 1143q1 283 177 329q94 25 212 -36q49 -33 75 -29t26 68h246q-1 -289 -177 -330q-97 -23 -215 39q-49 33 -73.5 27.5t-24.5 -68.5h-246zM391 512q0 -94 58.5 -153.5 t147.5 -59.5t147.5 59.5t58.5 153.5t-58.5 153.5t-147.5 59.5t-147.5 -59.5t-58.5 -153.5z" />
<glyph unicode="&#xf6;" horiz-adv-x="1193" d="M49 512q0 227 160 384t388 157t387 -157t159 -384t-159 -384t-387 -157t-388 157t-160 384zM233 1280q0 68 48.5 116t115 48t114.5 -48t48 -116t-48 -116t-115 -48t-115 48t-48 116zM391 512q0 -94 58.5 -153.5t147.5 -59.5t147.5 59.5t58.5 153.5t-58.5 153.5 t-147.5 59.5t-147.5 -59.5t-58.5 -153.5zM633 1280q0 68 48 116t115 48t114.5 -48t47.5 -116t-47.5 -116t-114.5 -48t-115 48t-48 116z" />
<glyph unicode="&#xf7;" horiz-adv-x="1128" d="M72 555v324h983v-324h-983zM371 299q0 82 55 138q55 57 138 57t138 -56q56 -56 56 -139t-56 -139t-138 -56q-83 0 -138 56t-55 139zM371 1134q0 82 55 139q55 56 138 56t138 -56q56 -56 56 -138q0 -83 -56 -139t-138 -56q-83 0 -138 56t-55 138z" />
<glyph unicode="&#xf8;" horiz-adv-x="1193" d="M49 516q0 223 160 380t387 157q158 0 289 -80l61 76l125 -72l-76 -92q147 -154 147.5 -377t-158.5 -380t-388 -157q-156 0 -287 80l-61 -76l-125 70l76 92q-150 156 -150 379zM391 528.5q0 -77.5 25 -125.5l254 310q-35 12 -74 12q-88 0 -146.5 -59.5t-58.5 -137z M524 311q33 -12 72 -12q90 0 148.5 59.5t58.5 137t-25 125.5z" />
<glyph unicode="&#xf9;" horiz-adv-x="1185" d="M86 412v612h340v-569q0 -80 42 -121t117 -41t119 48t44 138v545h339v-1024h-339v102q-92 -131 -272 -131t-285 114t-105 327zM221 1434h397l164 -297h-323z" />
<glyph unicode="&#xfa;" horiz-adv-x="1185" d="M86 412v612h340v-569q0 -80 42 -121t117 -41t119 48t44 138v545h339v-1024h-339v102q-92 -131 -272 -131t-285 114t-105 327zM385 1137l164 297h397l-237 -297h-324z" />
<glyph unicode="&#xfb;" horiz-adv-x="1185" d="M86 412v612h340v-569q0 -80 42 -121t117 -41t119 48t44 138v545h339v-1024h-339v102q-92 -131 -272 -131t-285 114t-105 327zM190 1116l218 318h342l217 -318h-308l-79 115l-82 -115h-308z" />
<glyph unicode="&#xfc;" horiz-adv-x="1185" d="M86 412v612h340v-569q0 -80 42 -121t117 -41t119 48t44 138v545h339v-1024h-339v102q-92 -131 -271.5 -131t-285 114t-105.5 327zM225 1259.5q0 67.5 48.5 115.5t115 48t114.5 -48t48 -115.5t-48 -115.5t-115 -48t-115 48t-48 115.5zM625 1259.5q0 67.5 48 115.5 t114.5 48t114.5 -48t48 -115.5t-48 -115.5t-115 -48t-114.5 48t-47.5 115.5z" />
<glyph unicode="&#xfd;" horiz-adv-x="1124" d="M0 1024h381l207 -594l160 594h376l-350 -1008q-82 -231 -231.5 -333.5t-386.5 -92.5v320q109 0 164 26.5t90 96.5zM367 1137l163 297h398l-238 -297h-323z" />
<glyph unicode="&#xfe;" d="M98 -410v1844h340v-504q104 123 300 123t334 -155t138 -386t-138 -386t-334 -155t-300 123v-504h-340zM438 512q0 -100 60 -162t155 -61q96 0 156 61q59 62 59 162t-59 162t-155 61q-96 0 -156 -61q-60 -62 -60 -162z" />
<glyph unicode="&#xff;" horiz-adv-x="1124" d="M0 1024h381l207 -594l160 594h376l-350 -1008q-82 -231 -231.5 -333.5t-386.5 -92.5v320q109 0 164 26.5t90 96.5zM207 1259.5q0 67.5 48 115.5t115 48t114.5 -48t47.5 -115.5t-47.5 -115.5t-114.5 -48t-115 48t-48 115.5zM606 1259.5q0 67.5 48 115.5t115 48t115 -48 t48 -115.5t-48 -115.5t-115 -48t-115 48t-48 115.5z" />
<glyph unicode="&#x152;" horiz-adv-x="1912" d="M57 716q0 316 214 532t528 216q111 0 215 -30h827v-342h-461v-199h410v-338h-410v-211h471v-344h-837q-104 -31 -215 -31q-313 0 -528 216q-214 215 -214 531zM422 716q0 -172 105 -280q105 -109 272 -108q123 0 215 37v704q-92 37 -215 37q-165 0 -271 -109t-106 -281z " />
<glyph unicode="&#x153;" horiz-adv-x="1918" d="M49 511q0 222 151 382q152 160 392 160t379 -183q143 182 399 183q218 0 360 -154t142 -385q0 -68 -14 -127h-707q53 -125 223 -125q117 0 193 72l245 -172q-152 -190 -426 -190t-415 184q-135 -184 -377 -184t-393 158q-152 159 -152 381zM392 512q0 -94 58 -154 t147 -59q89 0 147 59q58 60 58 154t-58 154t-147 59q-89 0 -147 -59q-58 -60 -58 -154zM1147 625h393q-40 141 -194 141t-199 -141z" />
<glyph unicode="&#x178;" horiz-adv-x="1333" d="M0 1434h412l254 -531l256 531h411l-483 -883v-551h-367v547zM303 1669.5q0 67.5 48 115.5t115 48t115 -48t48 -115.5t-48 -116t-115 -48.5t-115 48.5t-48 116zM702 1669.5q0 67.5 48.5 115.5t115 48t114.5 -48t48 -115.5t-48 -116t-115 -48.5t-115 48.5t-48 116z" />
<glyph unicode="&#x2c6;" horiz-adv-x="858" d="M41 1116l217 318h342l217 -318h-307l-80 115l-82 -115h-307z" />
<glyph unicode="&#x2dc;" horiz-adv-x="817" d="M41 1122q0 284 176 329q98 25 213 -36q49 -33 75 -29t25 68h246q0 -289 -176 -330q-96 -23 -215 39q-49 33 -74 28t-24 -69h-246z" />
<glyph unicode="&#x2000;" horiz-adv-x="944" />
<glyph unicode="&#x2001;" horiz-adv-x="1888" />
<glyph unicode="&#x2002;" horiz-adv-x="944" />
<glyph unicode="&#x2003;" horiz-adv-x="1888" />
<glyph unicode="&#x2004;" horiz-adv-x="629" />
<glyph unicode="&#x2005;" horiz-adv-x="472" />
<glyph unicode="&#x2006;" horiz-adv-x="314" />
<glyph unicode="&#x2007;" horiz-adv-x="314" />
<glyph unicode="&#x2008;" horiz-adv-x="236" />
<glyph unicode="&#x2009;" horiz-adv-x="377" />
<glyph unicode="&#x200a;" horiz-adv-x="104" />
<glyph unicode="&#x2010;" horiz-adv-x="1024" d="M113 455v323h798v-323h-798z" />
<glyph unicode="&#x2011;" horiz-adv-x="1024" d="M113 455v323h798v-323h-798z" />
<glyph unicode="&#x2012;" horiz-adv-x="1024" d="M113 455v323h798v-323h-798z" />
<glyph unicode="&#x2013;" horiz-adv-x="1310" d="M113 455v323h1085v-323h-1085z" />
<glyph unicode="&#x2014;" horiz-adv-x="1515" d="M113 455v323h1290v-323h-1290z" />
<glyph unicode="&#x2018;" horiz-adv-x="618" d="M84 791l172 643h274l-71 -643h-375z" />
<glyph unicode="&#x2019;" horiz-adv-x="618" d="M88 791l72 643h375l-173 -643h-274z" />
<glyph unicode="&#x201a;" horiz-adv-x="618" d="M88 -287l72 643h375l-173 -643h-274z" />
<glyph unicode="&#x201c;" horiz-adv-x="1075" d="M84 791l172 643h274l-71 -643h-375zM541 791l172 643h274l-72 -643h-374z" />
<glyph unicode="&#x201d;" horiz-adv-x="1075" d="M88 791l72 643h375l-173 -643h-274zM545 791l71 643h375l-172 -643h-274z" />
<glyph unicode="&#x201e;" horiz-adv-x="1075" d="M88 -287l72 643h375l-173 -643h-274zM545 -287l71 643h375l-172 -643h-274z" />
<glyph unicode="&#x2022;" horiz-adv-x="817" d="M72 718q0 140 99 237t239 97t236 -96q97 -98 97 -237t-97 -239t-236 -99q-139 0 -239 99q-99 98 -99 238z" />
<glyph unicode="&#x2026;" horiz-adv-x="1613" d="M82 184q0 88 63 150t151 63q88 0 151 -62q63 -63 63 -151t-62 -150t-152 -63q-90 1 -152 63t-62 150zM592 184q0 88 63 150t151 63q88 0 151 -62q63 -63 63 -151t-62 -150t-152 -63q-90 1 -152 63t-62 150zM1104 184q0 88 63 150t151 63q88 0 151 -62q63 -63 63 -151 t-62 -150t-152 -63q-90 1 -152 63t-62 150z" />
<glyph unicode="&#x202f;" horiz-adv-x="377" />
<glyph unicode="&#x2039;" horiz-adv-x="745" d="M113 633l231 399h289l-230 -399l230 -400h-289z" />
<glyph unicode="&#x203a;" horiz-adv-x="745" d="M113 233l229 400l-229 399h288l232 -399l-232 -400h-288z" />
<glyph unicode="&#x205f;" horiz-adv-x="472" />
<glyph unicode="&#x20ac;" horiz-adv-x="1288" d="M27 512v172h123v72h-123v172h141q45 250 198 393t386 143q340 0 493 -313l-305 -176q-68 133 -188 133q-160 0 -211 -180h340v-172h-367v-72h367v-172h-342q51 -186 213 -186q122 -1 196 149l307 -176q-158 -330 -503 -330q-236 -1 -388 145t-198 398h-139z" />
<glyph unicode="&#x2122;" horiz-adv-x="985" d="M61 1292v142h359v-142h-105v-268h-149v268h-105zM457 1024v410h143l90 -138l90 138h144v-410h-144v195l-84 -127h-14l-82 125v-193h-143z" />
<glyph unicode="&#x25fc;" horiz-adv-x="1025" d="M0 0v1025h1025v-1025h-1025z" />
<glyph unicode="&#xfb03;" horiz-adv-x="1751" d="M31 698v326h129q0 221 130 338t386 102v-315q-176 12 -176 -125h237v20q0 440 516 441q135 0 267 -31v-297q-308 42 -394 -10q-47 -29 -47 -103v-20h574v-1024h-342v698h-232v-698h-342v698h-237v-698h-340v698h-129z" />
<glyph unicode="&#xfb04;" horiz-adv-x="1751" d="M31 698v326h129q0 221 130 338t386 102v-315q-176 12 -176 -125h237v20q0 441 516 441q184 0 400 -41v-1444h-342v1194q-20 2 -80 2t-106 -38t-46 -114v-20h133v-326h-133v-698h-342v698h-237v-698h-340v698h-129z" />
</font>
</defs>
</svg>
