<?xml version="1.0" standalone="no"?>
<!DOCTYPE svg PUBLIC "-//W3C//DTD SVG 1.1//EN" "http://www.w3.org/Graphics/SVG/1.1/DTD/svg11.dtd" >
<svg xmlns="http://www.w3.org/2000/svg">
<metadata></metadata>
<defs>
<font id="gilroylight" horiz-adv-x="1320" >
<font-face units-per-em="2048" ascent="1638" descent="-410" />
<missing-glyph horiz-adv-x="546" />
<glyph unicode="&#xfb01;" horiz-adv-x="1044" d="M55 924v100h176v55q0 377 410 377q92 0 199 -22v-95q-102 18 -199 19q-157 0 -231 -66t-74 -213v-55h553v-1024h-105v924h-448v-924h-105v924h-176z" />
<glyph unicode="&#xfb02;" horiz-adv-x="1044" d="M55 924v100h176v55q0 377 410 377q113 0 248 -22v-1434h-105v1354q-63 8 -143 8q-157 0 -231 -68t-74 -215v-55h244v-100h-244v-924h-105v924h-176z" />
<glyph horiz-adv-x="0" />
<glyph unicode="&#xd;" horiz-adv-x="681" />
<glyph unicode=" "  horiz-adv-x="546" />
<glyph unicode="&#x09;" horiz-adv-x="546" />
<glyph unicode="&#xa0;" horiz-adv-x="546" />
<glyph unicode="!" horiz-adv-x="450" d="M133 72q0 40 27 66q28 26 66 26t65 -27t27 -65t-27 -66q-27 -26 -66 -26t-65 26t-27 66zM164 1024v410h123v-410l-21 -655h-82z" />
<glyph unicode="&#x22;" horiz-adv-x="600" d="M109 1434h110l-14 -383h-82zM383 1434h109l-15 -383h-82z" />
<glyph unicode="#" horiz-adv-x="1234" d="M76 485l14 95h246l45 274h-246l15 94h247l64 383h102l-63 -383h315l64 383h102l-63 -383h243l-16 -94h-244l-45 -274h246l-17 -95h-245l-64 -383h-102l63 383h-315l-64 -383h-102l63 383h-243zM438 580h316l45 274h-316z" />
<glyph unicode="$" horiz-adv-x="1126" d="M88 268l94 54q74 -223 363 -240v608q-168 58 -279 139q-112 81 -111 245q1 165 111 267q111 102 279 113v184h96v-184q125 -14 220 -80t143 -178l-93 -51q-72 178 -270 203v-582q155 -57 220 -97t99 -78q78 -88 78 -236t-109 -254q-110 -105 -288 -121v-185h-96v182 q-170 8 -290 84t-167 207zM264 1082q0 -110 70 -170t211 -111v549q-125 -10 -203 -84t-78 -184zM641 86q135 14 211 91t76 190t-72 176t-215 114v-571z" />
<glyph unicode="%" horiz-adv-x="1466" d="M129 1151q0 129 89 217t224 88q134 0 224 -88t90 -217t-88 -217t-225 -88q-136 0 -225 88t-89 217zM207 184l973 1094l69 -39l-975 -1094zM232 1152q0 -90 58 -152q60 -60 152 -60t153 60q60 60 60 150t-60 152q-61 60 -153 60t-151 -60t-59 -150zM709 283q0 129 89 217 t224 88t224 -88t89 -217t-89 -217t-224 -89q-135 1 -224 89t-89 217zM811 283q0 -90 59 -151q60 -60 152 -60t153 60q60 60 60 150t-60 151q-61 61 -153 61t-152 -60t-59 -151z" />
<glyph unicode="&#x26;" horiz-adv-x="1341" d="M129 381q0 135 74 247t211 171q-115 133 -115 291t119 262q120 104 272 104t260 -72t154 -198l-90 -53q-33 100 -116 159q-84 60 -202 60t-202 -76t-84 -193q0 -81 39 -145t116 -143l449 -469q66 121 86 284l96 -55q-29 -178 -106 -309l196 -207l-96 -55l-166 174 q-158 -180 -428 -181q-213 0 -340 110t-127 294zM240 383q0 -141 95 -221t257 -80q223 0 358 154l-461 483q-127 -47 -188 -138t-61 -198z" />
<glyph unicode="'" horiz-adv-x="321" d="M109 1434h110l-14 -383h-82z" />
<glyph unicode="(" horiz-adv-x="534" d="M123 717q0 471 225 921h105q-225 -452 -225 -922t225 -921h-105q-225 451 -225 922z" />
<glyph unicode=")" horiz-adv-x="534" d="M82 -205q225 451 225 922t-225 921h104q225 -452 225 -922t-225 -921h-104z" />
<glyph unicode="*" horiz-adv-x="792" d="M129 1163v88l195 -4l-109 162l82 47l98 -170l101 170l79 -47l-108 -162l195 4v-88l-195 4l108 -161l-79 -48l-101 172l-98 -172l-82 48l109 161z" />
<glyph unicode="+" horiz-adv-x="1091" d="M129 668v98h367v367h100v-367h367v-98h-367v-367h-100v367h-367z" />
<glyph unicode="," horiz-adv-x="456" d="M127 -287l78 426h127l-111 -426h-94z" />
<glyph unicode="-" horiz-adv-x="1091" d="M178 584v98h737v-98h-737z" />
<glyph unicode="." horiz-adv-x="436" d="M127 72q0 40 27 66q28 26 66 26t65 -27t27 -65t-27 -66q-27 -26 -66 -26t-65 26t-27 66z" />
<glyph unicode="/" horiz-adv-x="1079" d="M88 -205l819 1843h82l-819 -1843h-82z" />
<glyph unicode="0" horiz-adv-x="1290" d="M109 717q0 339 141 539t395 200t395 -201q142 -201 142 -539t-142 -538q-142 -201 -395 -201q-254 0 -395 201t-141 539zM219 717q1 -301 113 -468t313 -167t313 167t113 468q0 301 -113 468q-114 167 -314 167t-312 -167t-113 -468z" />
<glyph unicode="1" horiz-adv-x="679" d="M35 1305l375 129h92v-1434h-109v1315l-332 -105z" />
<glyph unicode="2" horiz-adv-x="1079" d="M88 0v98l526 541q232 240 232 394q0 155 -90 237t-226 82q-240 0 -342 -217l-92 55q63 129 177 198q115 68 273 68t284 -110t126 -302q0 -122 -70 -238t-198 -245l-444 -457h745v-104h-901z" />
<glyph unicode="3" horiz-adv-x="1103" d="M78 250l90 53q39 -105 135 -163t244 -58t250 90t102 242t-103 242t-266 89h-30l-47 72l362 514h-700v103h825v-103l-344 -493q178 -18 295 -130t117 -304t-138 -309q-138 -118 -316 -118q-179 0 -302 72t-174 201z" />
<glyph unicode="4" horiz-adv-x="1173" d="M57 301v102l545 1031h119l-543 -1031h651v451h109v-451h184v-102h-184v-301h-109v301h-772z" />
<glyph unicode="5" horiz-adv-x="1107" d="M92 266l92 53q35 -115 131 -176t244 -61t251 90t103 242t-103 242t-265 89h-383l49 689h758v-103h-662l-33 -481h271q201 0 339 -118t138 -318t-138 -319q-138 -118 -339 -118q-158 0 -282 76t-171 213z" />
<glyph unicode="6" horiz-adv-x="1099" d="M68 449q0 162 88 286l481 699h123l-367 -535q78 23 156 23q211 0 346 -132t135 -340t-135 -340t-346 -132t-346 132t-135 339zM178 450q0 -164 102 -266t269 -102q168 0 270 102q103 102 103 266t-102 265q-102 102 -271 102q-168 0 -269 -102q-102 -102 -102 -265z" />
<glyph unicode="7" horiz-adv-x="1003" d="M47 1331v103h868v-103l-557 -1331h-112l557 1331h-756z" />
<glyph unicode="8" horiz-adv-x="1126" d="M88 383q0 123 69 217t187 141q-96 47 -153 132q-56 85 -56 196q0 183 124 285t304 102t304 -102t124 -285q-1 -111 -57 -196t-152 -132q119 -47 188 -141t68 -217q0 -190 -133 -298t-342 -108t-342 108t-133 298zM199 383q0 -141 98 -221t266 -80t266 80t99 221 q0 141 -98 220t-267 79q-168 0 -266 -79t-98 -220zM244 1071q0 -131 90 -207t229 -76t230 76q90 76 90 207t-89 206q-88 75 -230 75t-231 -75t-89 -206z" />
<glyph unicode="9" horiz-adv-x="1099" d="M68 984q0 208 135 340t346 132t346 -132t135 -339q0 -162 -88 -287l-479 -698h-123l367 535q-78 -23 -158 -23q-211 0 -346 132t-135 340zM178 984q0 -163 102 -265q102 -103 269 -103q168 0 270 102q103 102 103 266q0 163 -102 265q-102 103 -271 103q-167 0 -269 -102 t-102 -266z" />
<glyph unicode=":" horiz-adv-x="436" d="M127 72q0 40 27 66q28 26 66 26t65 -27t27 -65t-27 -66q-27 -26 -66 -26t-65 26t-27 66zM127 932q0 40 27 66q28 26 66 26t65 -27t27 -65t-27 -66q-27 -26 -66 -26t-65 26t-27 66z" />
<glyph unicode=";" horiz-adv-x="471" d="M127 -287l78 426h127l-111 -426h-94zM162 932q0 40 26 66t66 26t66 -27t26 -65t-26 -66q-26 -26 -66 -26q-39 0 -66 26t-26 66z" />
<glyph unicode="&#x3c;" horiz-adv-x="1079" d="M131 664v106l819 365v-115l-702 -303l702 -303v-115z" />
<glyph unicode="=" horiz-adv-x="1099" d="M129 463v98h840v-98h-840zM129 872v99h840v-99h-840z" />
<glyph unicode="&#x3e;" horiz-adv-x="1079" d="M129 299v115l702 303l-702 303v115l819 -365v-106z" />
<glyph unicode="?" horiz-adv-x="1085" d="M109 1186q45 130 161 200t281 70q164 0 285 -97q120 -97 120 -261t-140 -308l-116 -120q-140 -143 -141 -301h-108q0 182 139 331q58 60 116 118q140 138 140 267t-84 198t-217 69t-222 -56t-122 -161zM414 72q0 40 26 66t66 26t66 -27t26 -65t-26 -66q-26 -26 -66 -26 q-39 0 -66 26t-26 66z" />
<glyph unicode="@" horiz-adv-x="1652" d="M96 506q0 315 214 531q215 216 532 216q217 0 385 -105t250 -263q82 -157 82 -353t-85 -302t-202 -105q-86 0 -144 49q-57 49 -71 139q-87 -129 -237 -129t-246 94t-95 234q0 139 95 233q95 95 244 95t235 -123v108h98v-456q0 -186 135 -187q96 0 157 93q60 93 60 278 q0 277 -190 463t-475 186t-487 -198q-201 -198 -201 -495q0 -296 206 -492t523 -195q205 0 350 57l6 -53q-154 -55 -356 -55q-336 0 -560 210q-223 210 -223 525zM578 512q0 -102 68 -168q69 -65 169 -65q100 -1 169 65t69 168t-69 168t-169 66t-169 -66q-68 -66 -68 -168z " />
<glyph unicode="A" horiz-adv-x="1288" d="M31 0l557 1434h114l555 -1434h-114l-139 365h-719l-140 -365h-114zM326 467h639l-320 833z" />
<glyph unicode="B" horiz-adv-x="1275" d="M178 0v1434h572q156 0 266 -111t110 -266q0 -101 -50 -185t-134 -129q110 -43 178 -137t68 -215q0 -163 -115 -277t-276 -114h-619zM287 102h510q117 0 199 85t83 204q0 119 -83 204t-199 85h-510v-578zM287 782h463q112 0 190 81t78 194t-78 193t-190 81h-463v-549z" />
<glyph unicode="C" horiz-adv-x="1538" d="M96 717q0 311 211 525t535 214q197 0 360.5 -93t253.5 -251l-96 -55q-72 133 -211 214t-307 81q-279 0 -458 -183.5t-179 -451.5t179 -451.5t458 -183.5q168 0 309 82t213 219l96 -55q-88 -160 -253.5 -255.5t-364.5 -95.5q-324 0 -535 214.5t-211 525.5z" />
<glyph unicode="D" horiz-adv-x="1488" d="M178 0v1434h539q293 0 484.5 -208t191.5 -509t-191.5 -509t-484.5 -208h-539zM287 102h430q250 0 409.5 177.5t159.5 437.5t-159.5 437t-409.5 177h-430v-1229z" />
<glyph unicode="E" horiz-adv-x="1091" d="M178 0v1434h815v-103h-706v-557h655v-102h-655v-570h717v-102h-826z" />
<glyph unicode="F" horiz-adv-x="1060" d="M178 0v1434h795v-103h-686v-573h661v-103h-661v-655h-109z" />
<glyph unicode="G" horiz-adv-x="1636" d="M96 717q0 311 211 525t535 214q197 0 361.5 -94t254.5 -252l-96 -57q-72 135 -212 217t-308 82q-279 0 -458 -183.5t-179 -451.5q0 -267 180 -451q181 -184 449 -184t423.5 137t174.5 346h-609v103h719v-56q0 -268 -190 -452q-189 -184 -508 -184h-2q-320 1 -533 215.5 t-213 525.5z" />
<glyph unicode="H" horiz-adv-x="1406" d="M178 0v1434h109v-646h833v646h109v-1434h-109v686h-833v-686h-109z" />
<glyph unicode="I" horiz-adv-x="464" d="M178 0v1434h109v-1434h-109z" />
<glyph unicode="J" horiz-adv-x="1132" d="M88 217l92 55q76 -190 336 -190q160 0 255 81t95 230v1041h111v-1041q0 -199 -130 -307t-331 -109h-5q-147 0 -259 61q-114 62 -164 179z" />
<glyph unicode="K" horiz-adv-x="1171" d="M178 0v1434h109v-668l698 668h145l-724 -697l745 -737h-145l-719 707v-707h-109z" />
<glyph unicode="L" horiz-adv-x="1009" d="M178 0v1434h109v-1332h676v-102h-785z" />
<glyph unicode="M" horiz-adv-x="1652" d="M178 0v1434h135l512 -848l512 848h138v-1434h-109v1274l-530 -881h-19l-530 881v-1274h-109z" />
<glyph unicode="N" horiz-adv-x="1406" d="M178 0v1434h94l848 -1233v1233h109v-1434h-96l-846 1233v-1233h-109z" />
<glyph unicode="O" horiz-adv-x="1671" d="M96 717q0 307 215 523t524.5 216t524.5 -216t215 -523t-215 -523.5t-524.5 -216.5t-524.5 216.5t-215 523.5zM205 717q0 -264 183 -449.5t447.5 -185.5t447.5 185.5t183 449.5t-183 449.5t-447.5 185.5t-447.5 -185.5t-183 -449.5z" />
<glyph unicode="P" horiz-adv-x="1202" d="M178 0v1434h488q194 0 320 -127t126 -317t-127 -317q-127 -126 -319 -126h-379v-547h-109zM287 649h379q147 0 242 96q96 96 96 245t-96 245t-242 96h-379v-682z" />
<glyph unicode="Q" horiz-adv-x="1681" d="M96 717q0 307 216 523t524 216t523 -216q216 -216 216 -526t-225 -530l168 -166l-74 -67l-172 168q-195 -141 -436 -142q-308 1 -524 217t-216 523zM205 717q0 -264 184 -450q185 -185 447 -185q199 0 360 113l-317 313l73 67l322 -317q192 188 192 456t-184 452 q-184 186 -446 186t-446 -186t-185 -449z" />
<glyph unicode="R" horiz-adv-x="1255" d="M178 0v1434h565q174 0 299 -125t125 -284.5t-89 -272.5t-226 -150l356 -602h-125l-344 588h-452v-588h-109zM287 690h456q131 0 223.5 93.5t92.5 226.5t-92.5 227t-223.5 94h-456v-641z" />
<glyph unicode="S" horiz-adv-x="1175" d="M92 315l94 56q39 -133 148.5 -211t282.5 -78t266.5 80t93.5 203t-90 186t-297 130.5t-250 95.5q-114 74 -142 121q-46 80 -46 173q0 174 123.5 279.5t301 105.5t296 -84t174.5 -217l-93 -51q-102 248 -368 248q-147 0 -235.5 -78t-88.5 -197t82 -176t234.5 -107.5 t219 -78t143.5 -75.5q146 -91 146 -269t-129 -286t-335 -108t-344 91.5t-187 246.5z" />
<glyph unicode="T" horiz-adv-x="1105" d="M47 1331v103h1012v-103h-451v-1331h-110v1331h-451z" />
<glyph unicode="U" horiz-adv-x="1366" d="M158 479v955h108v-955q0 -180 108.5 -288.5t307.5 -108.5t308.5 108.5t109.5 288.5v955h108v-955q0 -227 -144 -364.5t-382 -137.5t-381 137.5t-143 364.5z" />
<glyph unicode="V" horiz-adv-x="1239" d="M27 1434h118l473 -1293l476 1293h116l-534 -1434h-115z" />
<glyph unicode="W" horiz-adv-x="2033" d="M68 1434h114l371 -1289l399 1289h129l402 -1289l368 1289h115l-416 -1434h-131l-401 1292l-404 -1292h-131z" />
<glyph unicode="X" horiz-adv-x="1173" d="M47 0l477 737l-450 697h125l389 -600l387 600h125l-451 -697l477 -737h-125l-413 639l-414 -639h-127z" />
<glyph unicode="Y" horiz-adv-x="1193" d="M20 1434h123l455 -740l453 740h123l-523 -844v-590h-108v590z" />
<glyph unicode="Z" horiz-adv-x="1071" d="M88 0v102l774 1229h-753v103h874v-103l-774 -1229h795v-102h-916z" />
<glyph unicode="[" horiz-adv-x="567" d="M129 -205v1843h397v-100h-293v-1642h293v-101h-397z" />
<glyph unicode="\" horiz-adv-x="1079" d="M88 1638h82l819 -1843h-82z" />
<glyph unicode="]" horiz-adv-x="567" d="M41 -104h293v1642h-293v100h397v-1843h-397v101z" />
<glyph unicode="^" horiz-adv-x="1028" d="M102 819l361 615h102l361 -615h-121l-291 498l-291 -498h-121z" />
<glyph unicode="_" horiz-adv-x="1038" d="M82 -174h874v-98h-874v98z" />
<glyph unicode="`" horiz-adv-x="368" d="M41 1427h123l164 -260h-99z" />
<glyph unicode="a" d="M88 512q0 225 155.5 380t374.5 155q145 0 260 -68t181 -186v231h104v-1024h-104v231q-66 -119 -180.5 -186.5t-260.5 -67.5q-219 0 -374.5 155t-155.5 380zM193 512q0 -182 125.5 -309t308 -127t307.5 127t125 309t-125 309t-307.5 127t-308 -127t-125.5 -309z" />
<glyph unicode="b" d="M158 0v1434h102v-648q63 121 179 191t261 70q221 0 376 -155t155 -380t-155 -380t-376 -155q-145 0 -261 70t-179 191v-238h-102zM260 512q0 -182 126 -309t308 -127t308 127t126 309t-126 309t-308 127t-308 -127t-126 -309z" />
<glyph unicode="c" horiz-adv-x="1148" d="M88 512q0 227 153.5 381t385.5 154q150 0 270.5 -71t175.5 -192l-84 -49q-45 98 -142 155.5t-220 57.5q-184 0 -309 -126t-125 -310t124.5 -310t309.5 -126q123 0 220 57t148 156l86 -51q-61 -119 -182.5 -190t-271.5 -71q-231 0 -385 154t-154 381z" />
<glyph unicode="d" d="M90 512q0 225 155 380t376 155q145 0 261 -70t179 -191v648h102v-1434h-102v238q-63 -121 -179 -191t-261 -70q-221 0 -376 155t-155 380zM192 512q0 -182 127 -309q126 -127 308 -127t308 127t126 309t-126 309t-308 127q-183 0 -309 -127t-126 -309z" />
<glyph unicode="e" horiz-adv-x="1206" d="M88 510q0 231 148.5 384t377.5 153t369.5 -160t140.5 -379l-2 -49h-927q18 -172 138 -277.5t296 -105.5q123 0 215 51t139 135l90 -53q-63 -106 -180 -169t-266 -63q-236 0 -387.5 151t-151.5 382zM195 559h823q-16 182 -130 285.5t-279 103.5t-281.5 -108.5 t-132.5 -280.5z" />
<glyph unicode="f" horiz-adv-x="641" d="M55 924v100h176v55q-1 193 105 292q93 87 257 87q23 0 48 -2v-98q-23 2 -45 2q-260 0 -260 -281v-55h305v-100h-305v-924h-105v924h-176z" />
<glyph unicode="g" horiz-adv-x="1327" d="M96 512q0 225 155 380t376 155q145 0 261 -70t179 -191v238h102v-975q0 -223 -145 -352t-365 -129q-176 0 -301 65.5t-182 180.5l90 51q98 -199 393 -199q190 0 299 103.5t109 279.5v189q-63 -121 -179 -191t-261 -70q-221 0 -376 155t-155 380zM199 512q0 -182 126 -309 t308 -127t308 127t126 309t-126 309t-308 127t-308 -127t-126 -309z" />
<glyph unicode="h" horiz-adv-x="1155" d="M158 0v1434h102v-605q111 218 367 218q181 0 289 -112t108 -298v-637h-104v637q0 143 -79 227t-230 84t-251 -104t-100 -303v-541h-102z" />
<glyph unicode="i" horiz-adv-x="417" d="M127 1353q0 33 25 57q26 24 58 24t56 -24t25 -58q-1 -34 -25 -56q-24 -24 -57 -24t-57 24t-25 57zM158 0v1024h102v-1024h-102z" />
<glyph unicode="j" horiz-adv-x="456" d="M-41 -334q22 -2 42 -2q196 0 196 219v1141h102v-1141q0 -164 -88 -247q-75 -70 -204 -70q-23 0 -48 2v98zM166 1353q0 33 24 57t58 24t58 -24t24 -58t-24 -57t-58 -23t-59 24q-23 24 -23 57z" />
<glyph unicode="k" horiz-adv-x="989" d="M158 0v1434h102v-875l518 465h144l-551 -492l571 -532h-139l-543 504v-504h-102z" />
<glyph unicode="l" horiz-adv-x="417" d="M158 0v1495h102v-1495h-102z" />
<glyph unicode="m" horiz-adv-x="1755" d="M158 0v1024h102v-176q106 199 330 199q112 -1 196 -55t123 -154q53 104 145 156t197 53q169 -1 271 -105t102 -293v-649h-102v649q0 143 -75 221t-205 78t-215 -94t-85 -283v-571h-102v649q0 143 -71 221t-199 78t-218 -95q-92 -95 -92 -282v-571h-102z" />
<glyph unicode="n" horiz-adv-x="1155" d="M158 0v1024h102v-195q111 218 367 218q182 0 289.5 -112t107.5 -298v-637h-104v637q0 143 -79 227t-230 84t-251 -104.5t-100 -302.5v-541h-102z" />
<glyph unicode="o" horiz-adv-x="1251" d="M88 512q0 225 156.5 380t381 155t381 -155t156.5 -380t-156.5 -380t-380.5 -155t-381 155t-157 380zM193 512q0 -182 125.5 -309t308 -127t307.5 127t125 309t-125 309t-307.5 127t-308 -127t-125.5 -309z" />
<glyph unicode="p" d="M158 -410v1434h102v-238q63 121 179 191t261 70q221 0 376 -155t155 -380t-155 -380t-376 -155q-145 0 -261 70t-179 191v-648h-102zM260 512q0 -182 126 -309t308 -127t308 127t126 309t-126 309t-308 127t-308 -127t-126 -309z" />
<glyph unicode="q" d="M90 512q0 225 155 380t376 155q145 0 261 -70t179 -191v238h102v-1434h-102v648q-63 -121 -179 -191t-261 -70q-221 0 -376 155t-155 380zM192 512q0 -182 127 -309q126 -127 308 -127t308 127t126 309t-126 309t-308 127q-183 0 -309 -127t-126 -309z" />
<glyph unicode="r" horiz-adv-x="651" d="M158 0v1024h102v-201q92 215 342 215v-98q-145 0 -243.5 -93t-98.5 -278v-569h-102z" />
<glyph unicode="s" horiz-adv-x="937" d="M92 205l88 51q29 -84 108 -132t193.5 -48t189 50t74.5 134t-63.5 129t-155.5 66.5t-183 48t-154.5 88t-63.5 174.5t97 197t235.5 84t229.5 -55.5t134 -149.5l-86 -49q-31 76 -102.5 115.5t-167.5 39.5t-167 -52t-71 -134t63.5 -125t156 -64.5t183.5 -48t154.5 -89 t63.5 -178.5t-101.5 -198t-257 -82t-257 62.5t-140.5 165.5z" />
<glyph unicode="t" horiz-adv-x="770" d="M47 924v100h225v256l105 31v-287h305v-100h-305v-666q0 -88 32.5 -127t100.5 -44q23 -2 49 -2q53 0 123 7v-92q-71 -11 -129 -11q-111 -1 -179 39q-102 60 -102 230v666h-225z" />
<glyph unicode="u" horiz-adv-x="1155" d="M131 387v637h105v-637q0 -143 78.5 -227t229.5 -84t251 104.5t100 302.5v541h102v-1024h-102v195q-111 -217 -367 -218q-182 0 -289.5 112t-107.5 298z" />
<glyph unicode="v" horiz-adv-x="1046" d="M27 1024h110l385 -918l387 918h109l-432 -1024h-125z" />
<glyph unicode="w" horiz-adv-x="1576" d="M68 1024h108l273 -891l286 891h107l286 -891l273 891h108l-323 -1024h-113l-285 872l-284 -872h-113z" />
<glyph unicode="x" horiz-adv-x="1038" d="M47 0l410 526l-385 498h125l321 -416l324 416h123l-383 -496l407 -528h-125l-346 446l-346 -446h-125z" />
<glyph unicode="y" horiz-adv-x="1044" d="M27 1024h110l414 -911l356 911h111l-443 -1118q-59 -152 -167 -239q-98 -78 -212 -78q-13 0 -26 1v97q11 -1 22 -1q85 0 155 57q79 64 128 183l23 56z" />
<glyph unicode="z" horiz-adv-x="976" d="M109 0v68l614 856h-594v100h737v-68l-612 -856h633v-100h-778z" />
<glyph unicode="{" horiz-adv-x="714" d="M109 670v98q119 0 171 43t52 162v383q0 164 88 242t254 61v-100q-123 14 -180 -33t-58 -170v-383q0 -213 -164 -254q164 -41 164 -254v-383q0 -123 58 -170t180 -35v-98q-166 -17 -254 61t-88 242v383q0 119 -52 162t-171 43z" />
<glyph unicode="|" horiz-adv-x="458" d="M178 -410v1885h103v-1885h-103z" />
<glyph unicode="}" horiz-adv-x="714" d="M41 -123q123 -12 180 35t58 170v383q0 213 163 254q-164 41 -163 254v383q1 123 -57 170t-181 33v100q166 16 254 -62t88 -241v-383q0 -119 52 -162t171 -43v-98q-119 0 -171 -43t-52 -162v-383q0 -164 -88 -242t-254 -61v98z" />
<glyph unicode="~" horiz-adv-x="1202" d="M129 637q41 142 160 198q59 29 146 11t190 -86q284 -186 352 82l94 -45q-40 -142 -157 -199q-58 -28 -146 -10t-190 86q-283 186 -355 -82z" />
<glyph unicode="&#xa1;" horiz-adv-x="450" d="M133 952q1 38 27 66q26 26 65 26t66 -26t27 -66t-28 -66q-26 -26 -65 -26t-65 27t-27 65zM164 0l20 655h82l21 -655v-410h-123v410z" />
<glyph unicode="&#xa2;" horiz-adv-x="1148" d="M88 717q0 227 154 381t385 153q51 0 108 -10l64 193h82l-70 -213q186 -66 262 -232l-84 -49q-59 131 -209 186l-272 -829q59 -16 119 -16q123 -1 220 57t148 156l86 -52q-61 -120 -183 -190t-271 -70q-82 0 -152 21l-65 -203h-82l73 227q-143 61 -228 193t-85 297z M193 717q0 -129 65 -235q66 -105 176 -158l271 823q-37 6 -78 6q-184 0 -309 -126t-125 -310z" />
<glyph unicode="&#xa3;" horiz-adv-x="1208" d="M88 0v104h205v496h-164v96h164v348q0 193 121 303t291 109q279 0 382 -266l-88 -51q-76 213 -294 213q-131 0 -217 -81t-87 -227v-348h494v-96h-494v-496h773v-104h-1086z" />
<glyph unicode="&#xa4;" horiz-adv-x="1132" d="M88 293l145 143q-102 119 -102 281t102 280l-145 144l53 53l146 -143q121 98 279 98t280 -98l143 143l53 -53l-141 -144q100 -122 100 -280t-100 -281l141 -143l-53 -53l-143 143q-121 -98 -280 -98t-279 98l-146 -143zM236 717q0 -139 95 -237t234 -97q139 0 236 97 q96 96 96 236t-96 237q-95 97 -235 97t-235 -96q-95 -98 -95 -237z" />
<glyph unicode="&#xa5;" horiz-adv-x="1167" d="M20 1434h123l449 -729h10l449 729h123l-453 -729h297v-93h-352l-15 -22v-135h367v-90h-367v-365h-108v365h-391v90h391v135l-15 22h-376v93h321z" />
<glyph unicode="&#xa6;" horiz-adv-x="458" d="M178 348h103v-758h-103v758zM178 717v758h103v-758h-103z" />
<glyph unicode="&#xa7;" horiz-adv-x="1040" d="M129 702q0 150 143 246q-88 88 -88 211t98 210t239 87q282 0 376 -239l-84 -48q-76 188 -281 189q-102 0 -173 -55t-70 -148q0 -63 50 -117t95 -79q44 -24 104 -50t66 -27t49 -22q218 -103 273 -212q27 -54 26 -122q0 -149 -135 -245q94 -88 94 -214t-100 -211t-264 -85 q-315 0 -414 266l88 51q68 -217 326 -217q115 0 187 53t73 151q0 98 -112 168q-70 45 -223 112t-221 119t-95 106t-27 122zM233 702q0 -92 71 -149q70 -57 216 -113t217 -98q111 70 111 173t-69 159t-211 112q-142 57 -218 103q-117 -70 -117 -187z" />
<glyph unicode="&#xa8;" horiz-adv-x="600" d="M40 1256q0 32 22 54t54 22t54 -22t20 -54q0 -32 -21 -53t-53 -21t-54 22t-22 52zM410 1256q0 32 21 54t53 22t54 -22t22 -54t-22 -53t-54 -21t-54 22t-20 52z" />
<glyph unicode="&#xa9;" horiz-adv-x="1673" d="M96 717q0 307 217 523t525 216t524 -216q217 -216 217 -523t-217 -523t-524 -217q-306 1 -524 217t-218 523zM150 716q0 -286 201 -488q202 -201 487 -201q286 -1 486 201t200 489t-201 489t-485 201q-284 0 -487 -202q-201 -203 -201 -489zM446 717q0 165 114 279 t284 114q108 0 196 -51t138 -139l-86 -50q-33 68 -101 106t-147 38q-129 0 -212 -87t-83 -210t83 -210t212 -87q82 0 150 38t98 107l88 -51q-49 -88 -138 -139t-198 -51q-170 0 -284 114t-114 279z" />
<glyph unicode="&#xab;" horiz-adv-x="960" d="M164 633l219 354h127l-219 -354l219 -354h-127zM453 633l217 354h127l-217 -354l217 -354h-127z" />
<glyph unicode="&#xac;" horiz-adv-x="1064" d="M129 682v100h807v-354h-105v254h-702z" />
<glyph unicode="&#xad;" horiz-adv-x="1091" d="M178 584v98h737v-98h-737z" />
<glyph unicode="&#xae;" horiz-adv-x="1673" d="M96 717q0 307 217 523q218 216 525 216t524 -216t217 -523t-217 -523t-524 -216q-306 0 -524 216t-218 523zM150 716q0 -286 201 -488q202 -201 487 -201q286 -1 486 201t200 489t-201 489t-485 201q-284 0 -487 -202q-201 -203 -201 -489zM618 338v758h228 q134 0 206 -70t72 -168q0 -168 -153 -217l172 -303h-109l-160 285h-157v-285h-99zM717 717h133q176 0 176 141q0 66 -45 105t-131 38h-133v-284z" />
<glyph unicode="&#xaf;" horiz-adv-x="600" d="M41 1202v90h518v-90h-518z" />
<glyph unicode="&#xb0;" horiz-adv-x="790" d="M88 1358q0 125 88 213t219 88t219 -88t88 -214t-87 -212t-219 -86t-220 87t-88 212zM190 1359q0 -87 58 -147t148 -59q89 0 147 58q57 59 57 147t-58 147t-146 59t-147 -58q-59 -60 -59 -147z" />
<glyph unicode="&#xb1;" horiz-adv-x="1091" d="M129 190v101h834v-101h-834zM129 797v100h367v346h100v-346h367v-100h-367v-346h-100v346h-367z" />
<glyph unicode="&#xb4;" horiz-adv-x="368" d="M41 1167l164 260h123l-187 -260h-100z" />
<glyph unicode="&#xb5;" horiz-adv-x="1243" d="M158 -410v1434h102v-637q0 -143 80 -227t230 -84t250 104q99 104 100 303v541h104v-840q0 -40 22 -62t62 -22h68v-100h-78q-82 0 -130 50t-48 134v6q-113 -213 -365 -213q-199 0 -295 138v-525h-102z" />
<glyph unicode="&#xb6;" horiz-adv-x="1167" d="M88 1038q0 164 116 280t281 116h594v-97h-123v-1747h-102v1747h-268v-1747h-101v1051q-165 0 -281 117q-116 116 -116 280z" />
<glyph unicode="&#xb7;" horiz-adv-x="436" d="M127 707q0 39 27 65q28 26 66 27q38 0 65 -27q27 -28 27 -66t-28 -65q-26 -27 -65 -27t-65 27t-27 66z" />
<glyph unicode="&#xb8;" horiz-adv-x="466" d="M33 -348q153 -14 231 8t78 72q0 88 -188 88v180h92v-115q82 -10 134 -50t52 -103q0 -195 -399 -164v84z" />
<glyph unicode="&#xbb;" horiz-adv-x="960" d="M164 279l217 354l-217 354h127l217 -354l-217 -354h-127zM451 279l219 354l-219 354h127l219 -354l-219 -354h-127z" />
<glyph unicode="&#xbc;" horiz-adv-x="1697" d="M27 1341l252 93h77v-820h-98v709l-205 -68zM272 0l832 1434h96l-833 -1434h-95zM1004 164v92l307 563h106l-307 -563h330v213h98v-213h111v-92h-111v-164h-98v164h-436z" />
<glyph unicode="&#xbd;" horiz-adv-x="1669" d="M27 1341l252 93h77v-820h-98v709l-205 -68zM272 0l832 1434h96l-833 -1434h-95zM1038 0v80l359 334q90 80 90 184q0 66 -45 109t-125 43q-143 0 -195 -136l-82 45q33 85 105 135q73 50 183 50t184 -71t73 -175q0 -135 -121 -248l-280 -256h418v-94h-564z" />
<glyph unicode="&#xbe;" horiz-adv-x="1908" d="M57 756l82 47q53 -119 201 -119q94 0 143 46t49 120t-51 121t-141 47h-8l-47 72l198 249h-401v95h516v-95l-197 -243q109 -14 169 -81t61 -173q0 -106 -79 -180q-79 -72 -212 -72q-207 0 -283 166zM483 0l832 1434h96l-833 -1434h-95zM1214 164v92l308 563h106l-307 -563 h330v213h98v-213h111v-92h-111v-164h-98v164h-437z" />
<glyph unicode="&#xbf;" horiz-adv-x="1085" d="M129 -74q0 164 140 308q59 60 117 120q140 143 140 301h109q0 -182 -139 -331q-58 -60 -116 -118q-140 -138 -140 -267t84 -198t217 -69t222 56t122 161l92 -51q-45 -130 -162 -200t-281 -70t-284 97q-121 97 -121 261zM487 952q0 38 27 66q27 26 66 26q40 0 66 -26 t26 -66t-27 -66t-65 -26t-66 27q-27 27 -27 65z" />
<glyph unicode="&#xc0;" horiz-adv-x="1288" d="M31 0l557 1434h114l555 -1434h-114l-139 365h-719l-140 -365h-114zM326 467h639l-320 833zM457 1837h123l163 -260h-98z" />
<glyph unicode="&#xc1;" horiz-adv-x="1288" d="M31 0l557 1434h114l555 -1434h-114l-139 365h-719l-140 -365h-114zM326 467h639l-320 833zM559 1577l164 260h123l-187 -260h-100z" />
<glyph unicode="&#xc2;" horiz-adv-x="1288" d="M31 0l557 1434h114l555 -1434h-114l-139 365h-719l-140 -365h-114zM326 467h639l-320 833zM362 1577l222 260h121l221 -260h-117l-164 195l-166 -195h-117z" />
<glyph unicode="&#xc3;" horiz-adv-x="1288" d="M31 0l557 1434h114l555 -1434h-114l-139 365h-719l-140 -365h-114zM326 467h639l-320 833zM367 1604q0 113 41 169t105.5 50t135.5 -68q184 -158 185 57h90q0 -166 -88.5 -206.5t-184.5 46.5q-194 176 -194 -48h-90z" />
<glyph unicode="&#xc4;" horiz-adv-x="1288" d="M31 0l557 1434h114l555 -1434h-114l-139 365h-719l-140 -365h-114zM326 467h639l-320 833zM385 1666q0 32 21.5 53.5t53.5 21.5t53.5 -21.5t21.5 -53.5t-21.5 -53.5t-53.5 -21.5t-53.5 21.5t-21.5 53.5zM754 1666q0 32 21.5 53.5t53 21.5t53 -21.5t21.5 -53.5 t-21.5 -53.5t-53.5 -21.5t-53 21.5t-21 53.5z" />
<glyph unicode="&#xc5;" horiz-adv-x="1288" d="M31 0l538 1384q-63 20 -99 70.5t-36 126.5t58.5 132t151.5 56t151.5 -56t58.5 -132t-36 -126t-97 -71l536 -1384h-114l-139 365h-719l-140 -365h-114zM326 467h639l-320 833zM522 1571q0 -51 33 -84t89 -33t90 33t34 84t-34 84t-90 33t-89 -33t-33 -84z" />
<glyph unicode="&#xc6;" horiz-adv-x="1787" d="M6 0l879 1434h803v-103h-658v-557h621v-102h-621v-570h668v-102h-778v375h-560l-229 -375h-125zM422 477h498v815z" />
<glyph unicode="&#xc7;" horiz-adv-x="1538" d="M96 723q0 305 211 519t535 214q197 0 360.5 -93t253.5 -251l-96 -55q-72 133 -211 214t-307 81q-279 0 -458 -183.5t-179 -451.5t179 -451.5t458 -183.5q168 0 309 82t213 219l96 -55q-84 -152 -235.5 -245t-337.5 -103v-95q82 -10 134 -50t52 -103q0 -195 -399 -164v84 q152 -14 230.5 7.5t78.5 72.5q0 88 -188 88v160q-305 16 -502 227t-197 516z" />
<glyph unicode="&#xc8;" horiz-adv-x="1091" d="M178 0v1434h815v-103h-706v-557h655v-102h-655v-570h717v-102h-826zM397 1837h123l164 -260h-98z" />
<glyph unicode="&#xc9;" horiz-adv-x="1091" d="M178 0v1434h815v-103h-706v-557h655v-102h-655v-570h717v-102h-826zM500 1577l164 260h122l-186 -260h-100z" />
<glyph unicode="&#xca;" horiz-adv-x="1091" d="M178 0v1434h815v-103h-706v-557h655v-102h-655v-570h717v-102h-826zM303 1577l221 260h121l221 -260h-116l-164 195l-166 -195h-117z" />
<glyph unicode="&#xcb;" horiz-adv-x="1091" d="M178 0v1434h815v-103h-706v-557h655v-102h-655v-570h717v-102h-826zM326 1666q0 32 21.5 53.5t53 21.5t53 -21.5t21.5 -53.5t-21.5 -53.5t-53.5 -21.5t-53 21.5t-21 53.5zM694 1666q0 32 21.5 53.5t53.5 21.5t53.5 -21.5t21.5 -53.5t-21.5 -53.5t-53.5 -21.5t-53.5 21.5 t-21.5 53.5z" />
<glyph unicode="&#xcc;" horiz-adv-x="464" d="M43 1837h123l164 -260h-99zM178 0v1434h109v-1434h-109z" />
<glyph unicode="&#xcd;" horiz-adv-x="464" d="M145 1577l164 260h123l-186 -260h-101zM178 0v1434h109v-1434h-109z" />
<glyph unicode="&#xce;" horiz-adv-x="464" d="M-51 1577l221 260h121l221 -260h-117l-164 195l-165 -195h-117zM178 0v1434h109v-1434h-109z" />
<glyph unicode="&#xcf;" horiz-adv-x="464" d="M-29 1666q0 32 21.5 53.5t53.5 21.5t53.5 -21.5t21.5 -53.5t-21.5 -53.5t-53.5 -21.5t-53.5 21.5t-21.5 53.5zM178 0v1434h109v-1434h-109zM340 1666q0 32 21.5 53.5t53.5 21.5t53 -21.5t21 -53.5t-21 -53.5t-53 -21.5t-53.5 21.5t-21.5 53.5z" />
<glyph unicode="&#xd0;" horiz-adv-x="1529" d="M82 668v98h137v668h539q293 0 484.5 -208t191.5 -509t-191.5 -509t-484.5 -208h-539v668h-137zM328 102h430q250 0 409.5 177.5t159.5 437.5t-159.5 437t-409.5 177h-430v-565h491v-98h-491v-566z" />
<glyph unicode="&#xd1;" horiz-adv-x="1406" d="M178 0v1434h94l848 -1233v1233h109v-1434h-96l-846 1233v-1233h-109zM418 1604q0 113 41 169t105.5 50t135.5 -68q184 -158 185 57h90q0 -166 -88 -206q-89 -40 -185 46q-194 175 -194 -48h-90z" />
<glyph unicode="&#xd2;" horiz-adv-x="1671" d="M96 717q0 307 215 523t524.5 216t524.5 -216t215 -523t-215 -523.5t-524.5 -216.5t-524.5 216.5t-215 523.5zM205 717q0 -264 183 -449.5t447.5 -185.5t447.5 185.5t183 449.5t-183 449.5t-447.5 185.5t-447.5 -185.5t-183 -449.5zM647 1837h123l164 -260h-98z" />
<glyph unicode="&#xd3;" horiz-adv-x="1671" d="M96 717q0 307 215 523t524.5 216t524.5 -216t215 -523t-215 -523.5t-524.5 -216.5t-524.5 216.5t-215 523.5zM205 717q0 -264 183 -449.5t447.5 -185.5t447.5 185.5t183 449.5t-183 449.5t-447.5 185.5t-447.5 -185.5t-183 -449.5zM750 1577l163 260h123l-186 -260h-100z " />
<glyph unicode="&#xd4;" horiz-adv-x="1671" d="M96 717q0 307 215 523t524.5 216t524.5 -216t215 -523t-215 -523.5t-524.5 -216.5t-524.5 216.5t-215 523.5zM205 717q0 -264 183 -449.5t447.5 -185.5t447.5 185.5t183 449.5t-183 449.5t-447.5 185.5t-447.5 -185.5t-183 -449.5zM553 1577l221 260h121l221 -260h-117 l-163 195l-166 -195h-117z" />
<glyph unicode="&#xd5;" horiz-adv-x="1671" d="M96 717q0 307 215 523t524.5 216t524.5 -216t215 -523t-215 -523.5t-524.5 -216.5t-524.5 216.5t-215 523.5zM205 717q0 -264 183 -449.5t447.5 -185.5t447.5 185.5t183 449.5t-183 449.5t-447.5 185.5t-447.5 -185.5t-183 -449.5zM557 1604q0 113 41 169t105.5 50 t136.5 -68q184 -158 184 57h90q0 -166 -88 -206.5t-184 46.5q-194 175 -195 -48h-90z" />
<glyph unicode="&#xd6;" horiz-adv-x="1671" d="M96 717q0 307 215 523t524.5 216t524.5 -216t215 -523t-215 -523.5t-524.5 -216.5t-524.5 216.5t-215 523.5zM205 717q0 -264 183 -449.5t447.5 -185.5t447.5 185.5t183 449.5t-183 449.5t-447.5 185.5t-447.5 -185.5t-183 -449.5zM575 1666q0 32 21.5 53.5t53.5 21.5 t53.5 -21.5t21.5 -53.5t-21.5 -53.5t-53.5 -21.5t-53.5 21.5t-21.5 53.5zM944 1666q0 32 21.5 53.5t53.5 21.5t53.5 -21.5t21.5 -53.5t-21.5 -53.5t-53.5 -21.5t-53.5 21.5t-21.5 53.5z" />
<glyph unicode="&#xd7;" horiz-adv-x="960" d="M117 422l295 295l-295 295l69 65l293 -293l293 293l72 -65l-295 -295l295 -295l-72 -66l-293 293l-293 -293z" />
<glyph unicode="&#xd8;" horiz-adv-x="1691" d="M117 712.5q0 311.5 215 527.5t524 216q252 0 451 -149l108 127l74 -43l-119 -140q225 -219 225 -530t-215 -527.5t-524 -216.5q-254 0 -448 150l-109 -127l-76 43l119 139q-225 219 -225 530.5zM225 717q0 -264 187 -455l825 963q-166 127 -381 127q-264 0 -447.5 -185.5 t-183.5 -449.5zM477 207q168 -125 379 -125q264 0 447.5 185.5t183.5 450.5t-187 451z" />
<glyph unicode="&#xd9;" horiz-adv-x="1366" d="M158 479v955h108v-955q0 -180 108.5 -288.5t307.5 -108.5t308.5 108.5t109.5 288.5v955h108v-955q0 -227 -144 -364.5t-382 -137.5t-381 137.5t-143 364.5zM492 1837h122l164 -260h-98z" />
<glyph unicode="&#xda;" horiz-adv-x="1366" d="M158 479v955h108v-955q0 -180 108.5 -288.5t307.5 -108.5t308.5 108.5t109.5 288.5v955h108v-955q0 -227 -144 -364.5t-382 -137.5t-381 137.5t-143 364.5zM594 1577l164 260h123l-187 -260h-100z" />
<glyph unicode="&#xdb;" horiz-adv-x="1366" d="M158 479v955h108v-955q0 -180 108.5 -288.5t307.5 -108.5t308.5 108.5t109.5 288.5v955h108v-955q0 -227 -144 -364.5t-382 -137.5t-381 137.5t-143 364.5zM397 1577l221 260h121l222 -260h-117l-164 195l-166 -195h-117z" />
<glyph unicode="&#xdc;" horiz-adv-x="1366" d="M158 479v955h108v-955q0 -180 108.5 -288.5t307.5 -108.5t308.5 108.5t109.5 288.5v955h108v-955q0 -227 -144 -364.5t-382 -137.5t-381 137.5t-143 364.5zM420 1666q0 32 21.5 53.5t53.5 21.5t53 -21.5t21 -53.5t-21 -53.5t-53 -21.5t-53.5 21.5t-21.5 53.5zM788 1666 q0 32 21.5 53.5t53.5 21.5t53.5 -21.5t21.5 -53.5t-21.5 -53.5t-53.5 -21.5t-53.5 21.5t-21.5 53.5z" />
<glyph unicode="&#xdd;" horiz-adv-x="1193" d="M20 1434h123l455 -740l453 740h123l-523 -844v-590h-108v590zM506 1577l164 260h123l-187 -260h-100z" />
<glyph unicode="&#xde;" horiz-adv-x="1202" d="M178 0v1434h109v-273h379q194 0 320 -127t126 -317q0 -189 -127 -317t-319 -128h-379v-272h-109zM287 375h379q147 0 242 97q96 97 96 246t-96 245t-242 96h-379v-684z" />
<glyph unicode="&#xdf;" horiz-adv-x="1056" d="M158 0v1057q0 186 108 293q109 106 277 106t260 -90t92 -223q0 -72 -47 -135q-47 -64 -94 -114t-47 -87q1 -37 31 -81t75 -89t90 -95q107 -119 107 -257q0 -139 -110 -221t-306 -72v94q145 -8 228 44t83 159q0 69 -47 143t-103 128q-151 146 -151 247q0 76 93 164 q36 33 65 80t29 92q0 96 -66 155q-67 60 -185 60t-199 -77t-81 -224v-1057h-102z" />
<glyph unicode="&#xe0;" d="M88 512q0 225 155.5 380t374.5 155q145 0 260 -68t181 -186v231h104v-1024h-104v231q-66 -119 -180.5 -186.5t-260.5 -67.5q-219 0 -374.5 155t-155.5 380zM193 512q0 -182 125.5 -309t308 -127t307.5 127t125 309t-125 309t-307.5 127t-308 -127t-125.5 -309zM440 1427 h123l164 -260h-98z" />
<glyph unicode="&#xe1;" d="M88 512q0 225 155.5 380t374.5 155q145 0 260 -68t181 -186v231h104v-1024h-104v231q-66 -119 -180.5 -186.5t-260.5 -67.5q-219 0 -374.5 155t-155.5 380zM193 512q0 -182 125.5 -309t308 -127t307.5 127t125 309t-125 309t-307.5 127t-308 -127t-125.5 -309zM543 1167 l164 260h122l-186 -260h-100z" />
<glyph unicode="&#xe2;" d="M88 512q0 225 155.5 380t374.5 155q145 0 260 -68t181 -186v231h104v-1024h-104v231q-66 -119 -180.5 -186.5t-260.5 -67.5q-219 0 -374.5 155t-155.5 380zM193 512q0 -182 125.5 -309t308 -127t307.5 127t125 309t-125 309t-307.5 127t-308 -127t-125.5 -309zM346 1167 l221 260h121l221 -260h-116l-164 195l-166 -195h-117z" />
<glyph unicode="&#xe3;" d="M88 512q0 225 155.5 380t374.5 155q145 0 260 -68t181 -186v231h104v-1024h-104v231q-66 -119 -180.5 -186.5t-260.5 -67.5q-219 0 -374.5 155t-155.5 380zM193 512q0 -182 125.5 -309t308 -127t307.5 127t125 309t-125 309t-307.5 127t-308 -127t-125.5 -309zM350 1194 q0 113 41 169t105.5 50t136.5 -67q184 -158 184 57h90q0 -166 -88 -207t-184 46q-195 177 -195 -48h-90z" />
<glyph unicode="&#xe4;" d="M88 512q0 225 155.5 380t374.5 155q145 0 260 -68t181 -186v231h104v-1024h-104v231q-66 -119 -180.5 -186.5t-260.5 -67.5q-219 0 -374.5 155t-155.5 380zM193 512q0 -182 125.5 -309t308 -127t307.5 127t125 309t-125 309t-307.5 127t-308 -127t-125.5 -309z M369 1256.5q0 31.5 21.5 53t53 21.5t53 -21.5t21.5 -53.5t-21.5 -53t-53.5 -21t-53 21.5t-21 53zM737 1256.5q0 31.5 21.5 53t53.5 21.5t53.5 -21.5t21.5 -53.5t-21.5 -53t-53.5 -21t-53.5 21.5t-21.5 53z" />
<glyph unicode="&#xe5;" d="M88 512q0 225 155.5 380t374.5 155q145 0 260 -68t181 -186v231h104v-1024h-104v231q-66 -119 -180.5 -186.5t-260.5 -67.5q-219 0 -374.5 155t-155.5 380zM193 512q0 -182 125.5 -309t308 -127t307.5 127t125 309t-125 309t-307.5 127t-308 -127t-125.5 -309zM420 1331 q0 86 58.5 142.5t151.5 56.5t151.5 -56.5t58.5 -142.5t-58.5 -142t-151.5 -56t-151.5 56t-58.5 142zM508 1331q0 -51 32.5 -84t89 -33t90.5 33t34 84t-34 84t-90 33t-89 -33t-33 -84z" />
<glyph unicode="&#xe6;" horiz-adv-x="2172" d="M88 512q0 225 156 380t374 155q144 0 260 -68t181 -186v231h102v-238q59 121 169 191t261 70q231 0 365 -158t135 -381l-2 -49h-924q16 -175 133 -279t293 -104q127 0 221 51t142 135l90 -53q-63 -107 -179 -169q-115 -62 -265 -62t-264 67q-114 68 -175 188v-233h-102 v231q-67 -119 -181 -187t-260 -67q-218 0 -374 155t-156 380zM192 512q0 -182 127 -309q126 -127 308 -127t307 127t125 309t-125 309t-307 127q-183 0 -309 -127t-126 -309zM1165 559h822q-16 181 -128 285t-281 104t-283 -108t-130 -281z" />
<glyph unicode="&#xe7;" horiz-adv-x="1148" d="M88 518q0 221 153.5 375t385.5 154q150 0 270.5 -71t175.5 -192l-84 -49q-45 98 -142 155.5t-220 57.5q-184 0 -309 -126t-125 -310t124.5 -310t309.5 -126q123 0 220 57t148 156l86 -51q-57 -109 -165.5 -178.5t-243.5 -79.5v-95q82 -10 134 -50t52 -103 q0 -195 -399 -164v84q152 -14 230.5 7.5t78.5 72.5q0 88 -188 88v160q-213 16 -352.5 166.5t-139.5 371.5z" />
<glyph unicode="&#xe8;" horiz-adv-x="1206" d="M88 510q0 231 148.5 384t377.5 153t369.5 -160t140.5 -379l-2 -49h-927q18 -172 138 -277.5t296 -105.5q123 0 215 51t139 135l90 -53q-63 -106 -180 -169t-266 -63q-236 0 -387.5 151t-151.5 382zM195 559h823q-16 182 -130 285.5t-279 103.5t-281.5 -108.5 t-132.5 -280.5zM418 1427h123l164 -260h-99z" />
<glyph unicode="&#xe9;" horiz-adv-x="1206" d="M88 510q0 231 148.5 384t377.5 153t369.5 -160t140.5 -379l-2 -49h-927q18 -172 138 -277.5t296 -105.5q123 0 215 51t139 135l90 -53q-63 -106 -180 -169t-266 -63q-236 0 -387.5 151t-151.5 382zM195 559h823q-16 182 -130 285.5t-279 103.5t-281.5 -108.5 t-132.5 -280.5zM520 1167l164 260h123l-186 -260h-101z" />
<glyph unicode="&#xea;" horiz-adv-x="1206" d="M88 510q0 231 148.5 384t377.5 153t369.5 -160t140.5 -379l-2 -49h-927q18 -172 138 -277.5t296 -105.5q123 0 215 51t139 135l90 -53q-63 -106 -180 -169t-266 -63q-236 0 -387.5 151t-151.5 382zM195 559h823q-16 182 -130 285.5t-279 103.5t-281.5 -108.5 t-132.5 -280.5zM324 1167l221 260h121l221 -260h-117l-164 195l-166 -195h-116z" />
<glyph unicode="&#xeb;" horiz-adv-x="1206" d="M88 510q0 231 148.5 384t377.5 153t369.5 -160t140.5 -379l-2 -49h-927q18 -172 138 -277.5t296 -105.5q123 0 215 51t139 135l90 -53q-63 -106 -180 -169t-266 -63q-236 0 -387.5 151t-151.5 382zM195 559h823q-16 182 -130 285.5t-279 103.5t-281.5 -108.5 t-132.5 -280.5zM346 1256.5q0 31.5 21.5 53t53.5 21.5t53.5 -21.5t21.5 -53.5t-21.5 -53t-53.5 -21t-53.5 21.5t-21.5 53zM715 1256.5q0 31.5 21.5 53t53.5 21.5t53 -21.5t21 -53.5t-21 -53t-53 -21t-53.5 21.5t-21.5 53z" />
<glyph unicode="&#xec;" horiz-adv-x="417" d="M27 1427h123l112 -260h-100zM158 0v1024h102v-1024h-102z" />
<glyph unicode="&#xed;" horiz-adv-x="417" d="M154 1167l112 260h125l-137 -260h-100zM158 0v1024h102v-1024h-102z" />
<glyph unicode="&#xee;" horiz-adv-x="417" d="M-25 1167l172 260h123l172 -260h-116l-117 176l-117 -176h-117zM158 0v1024h102v-1024h-102z" />
<glyph unicode="&#xef;" horiz-adv-x="417" d="M-2 1256.5q0 31.5 21.5 53t53.5 21.5t53 -21.5t21 -53.5t-21 -53t-53 -21t-53.5 21.5t-21.5 53zM158 0v1024h102v-1024h-102zM270 1256.5q0 31.5 21.5 53t53.5 21.5t53.5 -21.5t21.5 -53.5t-21.5 -53t-53.5 -21t-53.5 21.5t-21.5 53z" />
<glyph unicode="&#xf0;" horiz-adv-x="1202" d="M88 467q0 215 148 350t350 135q113 0 202 -45l-210 281l-244 -150v95l196 120l-135 181h121l96 -129l228 139v-94l-178 -111l358 -481q94 -127 94 -287q0 -219 -150 -356t-362 -137q-210 0 -362 136q-152 138 -152 353zM192 468q0 -170 119 -282q119 -110 291 -110 t290 110t118 285q0 139 -68 229q-117 154 -340 154q-176 0 -293 -108t-117 -278z" />
<glyph unicode="&#xf1;" horiz-adv-x="1155" d="M158 0v1024h102v-195q111 218 367 218q182 0 289.5 -112t107.5 -298v-637h-104v637q0 143 -79 227t-230 84t-251 -104.5t-100 -302.5v-541h-102zM319 1194q0 113 41 169t105.5 50t136.5 -67q184 -158 184 57h91q0 -166 -88.5 -207t-184.5 46q-194 176 -194 -48h-91z" />
<glyph unicode="&#xf2;" horiz-adv-x="1251" d="M88 512q0 225 156.5 380t381 155t381 -155t156.5 -380t-156.5 -380t-380.5 -155t-381 155t-157 380zM193 512q0 -182 125.5 -309t308 -127t307.5 127t125 309t-125 309t-307.5 127t-308 -127t-125.5 -309zM432 1427h123l164 -260h-98z" />
<glyph unicode="&#xf3;" horiz-adv-x="1251" d="M88 512q0 225 156.5 380t381 155t381 -155t156.5 -380t-156.5 -380t-380.5 -155t-381 155t-157 380zM193 512q0 -182 125.5 -309t308 -127t307.5 127t125 309t-125 309t-307.5 127t-308 -127t-125.5 -309zM535 1167l163 260h123l-186 -260h-100z" />
<glyph unicode="&#xf4;" horiz-adv-x="1251" d="M88 512q0 225 157 380t381 155t380.5 -155t156.5 -380t-156.5 -380t-380.5 -155t-381 155t-157 380zM193 512q0 -182 125.5 -309t308 -127t307.5 127t125 309t-125 309t-307.5 127t-308 -127t-125.5 -309zM338 1167l221 260h121l221 -260h-117l-163 195l-166 -195h-117z " />
<glyph unicode="&#xf5;" horiz-adv-x="1251" d="M88 512q0 225 156.5 380t381 155t381 -155t156.5 -380t-156.5 -380t-380.5 -155t-381 155t-157 380zM193 512q0 -182 125.5 -309t308 -127t307.5 127t125 309t-125 309t-307.5 127t-308 -127t-125.5 -309zM342 1194q0 113 41 169t105.5 50t136.5 -67q184 -158 184 57h90 q0 -166 -88 -207q-89 -41 -185 46q-194 175 -194 -48h-90z" />
<glyph unicode="&#xf6;" horiz-adv-x="1251" d="M88 512q0 225 156.5 380t381 155t381 -155t156.5 -380t-156.5 -380t-380.5 -155t-381 155t-157 380zM193 512q0 -182 125.5 -309t308 -127t307.5 127t125 309t-125 309t-307.5 127t-308 -127t-125.5 -309zM360 1256.5q0 31.5 21.5 53t53.5 21.5t53.5 -21.5t21.5 -53.5 t-21.5 -53t-53.5 -21t-53.5 21.5t-21.5 53zM729 1256.5q0 31.5 21.5 53t53.5 21.5t53.5 -21.5t21.5 -53.5t-21.5 -53t-53.5 -21t-53.5 21.5t-21.5 53z" />
<glyph unicode="&#xf7;" horiz-adv-x="1187" d="M129 668v98h930v-98h-930zM502 334q0 40 26 66t66 26t66 -27t26 -65t-26 -66q-26 -26 -66 -26q-39 0 -66 26t-26 66zM502 1100q0 40 26 66t66 26t66 -27t26 -65t-26 -66q-26 -26 -66 -26q-39 0 -66 26t-26 66z" />
<glyph unicode="&#xf8;" horiz-adv-x="1251" d="M88 513q0 224 156.5 379t382.5 155q186 0 331 -113l86 96l66 -37l-96 -106q150 -156 149.5 -378t-157 -377t-379.5 -155q-188 0 -334 113l-86 -96l-64 37l97 106q-152 152 -152 376zM193 516q0 -178 114 -303l584 647q-115 88 -280.5 88t-291.5 -127t-126 -305zM360 164 q117 -88 283 -88t291 127t125 305t-115 303z" />
<glyph unicode="&#xf9;" horiz-adv-x="1155" d="M131 387v637h105v-637q0 -143 78.5 -227t229.5 -84t251 104.5t100 302.5v541h102v-1024h-102v195q-111 -217 -367 -218q-182 0 -289.5 112t-107.5 298zM373 1427h123l163 -260h-98z" />
<glyph unicode="&#xfa;" horiz-adv-x="1155" d="M131 387v637h105v-637q0 -143 78.5 -227t229.5 -84t251 104.5t100 302.5v541h102v-1024h-102v195q-111 -217 -367 -218q-182 0 -289.5 112t-107.5 298zM475 1167l164 260h123l-187 -260h-100z" />
<glyph unicode="&#xfb;" horiz-adv-x="1155" d="M131 387v637h105v-637q0 -143 78.5 -227t229.5 -84t251 104.5t100 302.5v541h102v-1024h-102v195q-111 -217 -367 -218q-182 0 -289.5 112t-107.5 298zM279 1167l221 260h121l221 -260h-117l-164 195l-166 -195h-116z" />
<glyph unicode="&#xfc;" horiz-adv-x="1155" d="M131 387v637h105v-637q0 -143 78.5 -227t229.5 -84t251 104.5t100 302.5v541h102v-1024h-102v195q-111 -217 -367 -218q-182 0 -289.5 112t-107.5 298zM301 1256.5q0 31.5 21.5 53t53.5 21.5t53.5 -21.5t21.5 -53.5t-21.5 -53t-53.5 -21t-53.5 21.5t-21.5 53zM670 1256.5 q0 31.5 21.5 53t53 21.5t53 -21.5t21.5 -53.5t-21.5 -53t-53.5 -21t-53 21.5t-21 53z" />
<glyph unicode="&#xfd;" horiz-adv-x="1044" d="M27 1024h110l414 -911l356 911h111l-443 -1118q-59 -152 -167.5 -239t-237.5 -77v97q98 -8 177 56t128 183l23 56zM442 1167l164 260h123l-186 -260h-101z" />
<glyph unicode="&#xfe;" d="M158 -410v1844h102v-648q63 121 179 191t261 70q221 0 376 -155t155 -380t-155 -380t-376 -155q-145 0 -261 70t-179 191v-648h-102zM260 512q0 -182 126 -309t308 -127t308 127t126 309t-126 309t-308 127t-308 -127t-126 -309z" />
<glyph unicode="&#xff;" horiz-adv-x="1044" d="M27 1024h110l414 -911l356 911h111l-443 -1118q-59 -152 -167.5 -239t-237.5 -77v97q98 -8 177 56t128 183l23 56zM268 1256.5q0 31.5 21.5 53t53.5 21.5t53.5 -21.5t21.5 -53.5t-21.5 -53t-53.5 -21t-53.5 21.5t-21.5 53zM637 1256.5q0 31.5 21.5 53t53.5 21.5t53 -21.5 t21 -53.5t-21 -53t-53 -21t-53.5 21.5t-21.5 53z" />
<glyph unicode="&#x152;" horiz-adv-x="1867" d="M96 716q0 312 203 526t516 214q102 0 193 -22h761v-103h-653v-557h615v-102h-615v-570h664v-102h-772q-90 -23 -193 -23q-313 0 -516 214q-203 213 -203 525zM205 717q0 -267 171 -451t439 -184q103 0 193 29v1212q-90 29 -193 29q-268 0 -439 -184t-171 -451z" />
<glyph unicode="&#x153;" horiz-adv-x="2172" d="M88 512q0 227 155 381t384 154q166 1 295 -89t186 -239q55 150 182 239t297 89q223 0 363 -160t141 -379q0 -33 -2 -49h-928q18 -171 138 -277t296 -106q123 0 215 51t140 135l90 -53q-63 -107 -179 -169t-278 -62t-291 88t-184 237q-57 -147 -186 -236t-295 -90 q-229 0 -384 154t-155 381zM192 512q0 -184 125 -310q124 -126 308 -126t308 126t124 310t-124 310t-308 126q-185 0 -309 -126t-124 -310zM1161 559h824q-16 181 -130 285t-278 104t-282 -108t-134 -281z" />
<glyph unicode="&#x178;" horiz-adv-x="1193" d="M20 1434h123l455 -740l453 740h123l-523 -844v-590h-108v590zM332 1666q0 32 21.5 53.5t53.5 21.5t53 -21.5t21 -53.5t-21 -53.5t-53 -21.5t-53.5 21.5t-21.5 53.5zM700 1666q0 32 21.5 53.5t53.5 21.5t53.5 -21.5t21.5 -53.5t-21.5 -53.5t-53.5 -21.5t-53.5 21.5 t-21.5 53.5z" />
<glyph unicode="&#x2c6;" horiz-adv-x="645" d="M41 1167l221 260h121l221 -260h-117l-163 195l-166 -195h-117z" />
<glyph unicode="&#x2dc;" horiz-adv-x="638" d="M41 1194q0 113 41 169q42 56 106 50t136 -67q184 -158 184 57h90q0 -166 -88 -207t-184 46q-194 175 -195 -48h-90z" />
<glyph unicode="&#x2000;" horiz-adv-x="918" />
<glyph unicode="&#x2001;" horiz-adv-x="1837" />
<glyph unicode="&#x2002;" horiz-adv-x="918" />
<glyph unicode="&#x2003;" horiz-adv-x="1837" />
<glyph unicode="&#x2004;" horiz-adv-x="612" />
<glyph unicode="&#x2005;" horiz-adv-x="459" />
<glyph unicode="&#x2006;" horiz-adv-x="306" />
<glyph unicode="&#x2007;" horiz-adv-x="306" />
<glyph unicode="&#x2008;" horiz-adv-x="229" />
<glyph unicode="&#x2009;" horiz-adv-x="367" />
<glyph unicode="&#x200a;" horiz-adv-x="102" />
<glyph unicode="&#x2010;" horiz-adv-x="1091" d="M178 584v98h737v-98h-737z" />
<glyph unicode="&#x2011;" horiz-adv-x="1091" d="M178 584v98h737v-98h-737z" />
<glyph unicode="&#x2012;" horiz-adv-x="1091" d="M178 584v98h737v-98h-737z" />
<glyph unicode="&#x2013;" horiz-adv-x="1378" d="M178 584v98h1024v-98h-1024z" />
<glyph unicode="&#x2014;" horiz-adv-x="1583" d="M178 584v98h1229v-98h-1229z" />
<glyph unicode="&#x2018;" horiz-adv-x="456" d="M125 1008l111 426h94l-78 -426h-127z" />
<glyph unicode="&#x2019;" horiz-adv-x="456" d="M127 1008l78 426h127l-111 -426h-94z" />
<glyph unicode="&#x201a;" horiz-adv-x="456" d="M127 -287l78 426h127l-111 -426h-94z" />
<glyph unicode="&#x201c;" horiz-adv-x="716" d="M125 1008l111 426h94l-78 -426h-127zM385 1008l111 426h94l-78 -426h-127z" />
<glyph unicode="&#x201d;" horiz-adv-x="716" d="M127 1008l78 426h127l-111 -426h-94zM387 1008l78 426h127l-111 -426h-94z" />
<glyph unicode="&#x201e;" horiz-adv-x="716" d="M127 -287l78 426h127l-111 -426h-94zM387 -287l78 426h127l-111 -426h-94z" />
<glyph unicode="&#x2022;" horiz-adv-x="573" d="M109 718q0 75 52 126t127 51t126 -51t51 -126t-51 -127t-126 -52t-127 52t-52 127z" />
<glyph unicode="&#x2026;" horiz-adv-x="1214" d="M127 72q0 40 27 66q28 26 66 26t65 -27t27 -65t-27 -66q-27 -26 -66 -26t-65 26t-27 66zM516 72q0 40 27 66t65 26t66 -27q26 -27 26 -65t-26 -66q-27 -26 -66 -26q-40 0 -66 26t-26 66zM905 72q0 40 27 66q28 26 66 26t65 -27t27 -65t-27 -66q-27 -26 -66 -26t-65 26 t-27 66z" />
<glyph unicode="&#x202f;" horiz-adv-x="367" />
<glyph unicode="&#x2039;" horiz-adv-x="673" d="M164 633l219 354h127l-219 -354l219 -354h-127z" />
<glyph unicode="&#x203a;" horiz-adv-x="673" d="M164 279l219 354l-219 354h127l219 -354l-219 -354h-127z" />
<glyph unicode="&#x205f;" horiz-adv-x="459" />
<glyph unicode="&#x20ac;" horiz-adv-x="1232" d="M47 549v92h160q-2 25 -2 80t2 84h-160v90h170q35 260 175 411t360 150q150 0 258 -72t161 -202l-90 -52q-43 106 -129 164t-200 58q-168 0 -281 -120t-145 -337h548v-90h-559q-2 -29 -2 -84t2 -80h559v-92h-550q34 -223 146 -345t282 -122q240 0 329 223l90 -51 q-53 -131 -161 -204t-258 -73q-221 0 -362 154q-140 154 -175 418h-168z" />
<glyph unicode="&#x2122;" horiz-adv-x="978" d="M102 1370v64h310v-64h-121v-346h-68v346h-121zM467 1024v410h68l137 -220l137 220h68v-410h-68v293l-133 -213h-8l-133 213v-293h-68z" />
<glyph unicode="&#x25fc;" horiz-adv-x="1025" d="M0 0v1025h1025v-1025h-1025z" />
<glyph unicode="&#xfb03;" horiz-adv-x="1597" d="M55 924v100h176v55q-1 193 105 292t305 85v-98q-305 25 -305 -279v-55h448v76q0 377 410 377q90 0 199 -23v-94q-102 18 -199 18q-160 0 -232 -66t-73 -212v-76h551v-1024h-103v924h-448v-924h-105v924h-448v-924h-105v924h-176z" />
<glyph unicode="&#xfb04;" horiz-adv-x="1597" d="M55 924v100h176v55q-1 193 105 292t305 85v-98q-305 25 -305 -279v-55h448v76q0 377 410 377q115 0 246 -23v-1454h-103v1374q-63 8 -143 8q-160 0 -232 -68t-73 -214v-76h244v-100h-244v-924h-105v924h-448v-924h-105v924h-176z" />
</font>
</defs>
</svg>
